  0
SECTION
  2
HEADER
  9
$ACADVER
  1
AC1024
  9
$ACADMAINTVER
 70
6
  9
$DWGCODEPAGE
  3
ANSI_1252
  9
$LASTSAVEDBY
  1
ezdxf
  9
$INSBASE
 10
0.0
 20
0.0
 30
0.0
  9
$EXTMIN
 10
1e+20
 20
1e+20
 30
1e+20
  9
$EXTMAX
 10
-1e+20
 20
-1e+20
 30
-1e+20
  9
$LIMMIN
 10
0.0
 20
0.0
  9
$LIMMAX
 10
420.0
 20
297.0
  9
$ORTHOMODE
 70
0
  9
$REGENMODE
 70
1
  9
$FILLMODE
 70
1
  9
$QTEXTMODE
 70
0
  9
$MIRRTEXT
 70
1
  9
$LTSCALE
 40
1.0
  9
$ATTMODE
 70
1
  9
$TEXTSIZE
 40
2.5
  9
$TRACEWID
 40
1.0
  9
$TEXTSTYLE
  7
Standard
  9
$CLAYER
  8
0
  9
$CELTYPE
  6
ByLayer
  9
$CECOLOR
 62
256
  9
$CELTSCALE
 40
1.0
  9
$DISPSILH
 70
0
  9
$DIMSCALE
 40
1.0
  9
$DIMASZ
 40
2.5
  9
$DIMEXO
 40
0.625
  9
$DIMDLI
 40
3.75
  9
$DIMRND
 40
0.0
  9
$DIMDLE
 40
0.0
  9
$DIMEXE
 40
1.25
  9
$DIMTP
 40
0.0
  9
$DIMTM
 40
0.0
  9
$DIMTXT
 40
2.5
  9
$DIMCEN
 40
2.5
  9
$DIMTSZ
 40
0.0
  9
$DIMTOL
 70
0
  9
$DIMLIM
 70
0
  9
$DIMTIH
 70
0
  9
$DIMTOH
 70
0
  9
$DIMSE1
 70
0
  9
$DIMSE2
 70
0
  9
$DIMTAD
 70
1
  9
$DIMZIN
 70
8
  9
$DIMBLK
  1

  9
$DIMASO
 70
1
  9
$DIMSHO
 70
1
  9
$DIMPOST
  1

  9
$DIMAPOST
  1

  9
$DIMALT
 70
0
  9
$DIMALTD
 70
3
  9
$DIMALTF
 40
0.03937007874
  9
$DIMLFAC
 40
1.0
  9
$DIMTOFL
 70
1
  9
$DIMTVP
 40
0.0
  9
$DIMTIX
 70
0
  9
$DIMSOXD
 70
0
  9
$DIMSAH
 70
0
  9
$DIMBLK1
  1

  9
$DIMBLK2
  1

  9
$DIMSTYLE
  2
ISO-25
  9
$DIMCLRD
 70
0
  9
$DIMCLRE
 70
0
  9
$DIMCLRT
 70
0
  9
$DIMTFAC
 40
1.0
  9
$DIMGAP
 40
0.625
  9
$DIMJUST
 70
0
  9
$DIMSD1
 70
0
  9
$DIMSD2
 70
0
  9
$DIMTOLJ
 70
0
  9
$DIMTZIN
 70
8
  9
$DIMALTZ
 70
0
  9
$DIMALTTZ
 70
0
  9
$DIMUPT
 70
0
  9
$DIMDEC
 70
2
  9
$DIMTDEC
 70
2
  9
$DIMALTU
 70
2
  9
$DIMALTTD
 70
3
  9
$DIMTXSTY
  7
Standard
  9
$DIMAUNIT
 70
0
  9
$DIMADEC
 70
0
  9
$DIMALTRND
 40
0.0
  9
$DIMAZIN
 70
0
  9
$DIMDSEP
 70
44
  9
$DIMATFIT
 70
3
  9
$DIMFRAC
 70
0
  9
$DIMLDRBLK
  1

  9
$DIMLUNIT
 70
2
  9
$DIMLWD
 70
-2
  9
$DIMLWE
 70
-2
  9
$DIMTMOVE
 70
0
  9
$DIMFXL
 40
1.0
  9
$DIMFXLON
 70
0
  9
$DIMJOGANG
 40
0.785398163397
  9
$DIMTFILL
 70
0
  9
$DIMTFILLCLR
 70
0
  9
$DIMARCSYM
 70
0
  9
$DIMLTYPE
  6

  9
$DIMLTEX1
  6

  9
$DIMLTEX2
  6

  9
$DIMTXTDIRECTION
 70
0
  9
$LUNITS
 70
2
  9
$LUPREC
 70
4
  9
$SKETCHINC
 40
1.0
  9
$FILLETRAD
 40
10.0
  9
$AUNITS
 70
0
  9
$AUPREC
 70
2
  9
$MENU
  1
.
  9
$ELEVATION
 40
0.0
  9
$PELEVATION
 40
0.0
  9
$THICKNESS
 40
0.0
  9
$LIMCHECK
 70
0
  9
$CHAMFERA
 40
0.0
  9
$CHAMFERB
 40
0.0
  9
$CHAMFERC
 40
0.0
  9
$CHAMFERD
 40
0.0
  9
$SKPOLY
 70
0
  9
$TDCREATE
 40
2461130.942685185
  9
$TDUCREATE
 40
2458532.153996898
  9
$TDUPDATE
 40
2461130.942685185
  9
$TDUUPDATE
 40
2458532.1544311
  9
$TDINDWG
 40
0.0
  9
$TDUSRTIMER
 40
0.0
  9
$USRTIMER
 70
1
  9
$ANGBASE
 50
0.0
  9
$ANGDIR
 70
0
  9
$PDMODE
 70
0
  9
$PDSIZE
 40
0.0
  9
$PLINEWID
 40
0.0
  9
$SPLFRAME
 70
0
  9
$SPLINETYPE
 70
6
  9
$SPLINESEGS
 70
8
  9
$HANDSEED
  5
39
  9
$SURFTAB1
 70
6
  9
$SURFTAB2
 70
6
  9
$SURFTYPE
 70
6
  9
$SURFU
 70
6
  9
$SURFV
 70
6
  9
$UCSBASE
  2

  9
$UCSNAME
  2

  9
$UCSORG
 10
0.0
 20
0.0
 30
0.0
  9
$UCSXDIR
 10
1.0
 20
0.0
 30
0.0
  9
$UCSYDIR
 10
0.0
 20
1.0
 30
0.0
  9
$UCSORTHOREF
  2

  9
$UCSORTHOVIEW
 70
0
  9
$UCSORGTOP
 10
0.0
 20
0.0
 30
0.0
  9
$UCSORGBOTTOM
 10
0.0
 20
0.0
 30
0.0
  9
$UCSORGLEFT
 10
0.0
 20
0.0
 30
0.0
  9
$UCSORGRIGHT
 10
0.0
 20
0.0
 30
0.0
  9
$UCSORGFRONT
 10
0.0
 20
0.0
 30
0.0
  9
$UCSORGBACK
 10
0.0
 20
0.0
 30
0.0
  9
$PUCSBASE
  2

  9
$PUCSNAME
  2

  9
$PUCSORG
 10
0.0
 20
0.0
 30
0.0
  9
$PUCSXDIR
 10
1.0
 20
0.0
 30
0.0
  9
$PUCSYDIR
 10
0.0
 20
1.0
 30
0.0
  9
$PUCSORTHOREF
  2

  9
$PUCSORTHOVIEW
 70
0
  9
$PUCSORGTOP
 10
0.0
 20
0.0
 30
0.0
  9
$PUCSORGBOTTOM
 10
0.0
 20
0.0
 30
0.0
  9
$PUCSORGLEFT
 10
0.0
 20
0.0
 30
0.0
  9
$PUCSORGRIGHT
 10
0.0
 20
0.0
 30
0.0
  9
$PUCSORGFRONT
 10
0.0
 20
0.0
 30
0.0
  9
$PUCSORGBACK
 10
0.0
 20
0.0
 30
0.0
  9
$USERI1
 70
0
  9
$USERI2
 70
0
  9
$USERI3
 70
0
  9
$USERI4
 70
0
  9
$USERI5
 70
0
  9
$USERR1
 40
0.0
  9
$USERR2
 40
0.0
  9
$USERR3
 40
0.0
  9
$USERR4
 40
0.0
  9
$USERR5
 40
0.0
  9
$WORLDVIEW
 70
1
  9
$SHADEDGE
 70
3
  9
$SHADEDIF
 70
70
  9
$TILEMODE
 70
1
  9
$MAXACTVP
 70
64
  9
$PINSBASE
 10
0.0
 20
0.0
 30
0.0
  9
$PLIMCHECK
 70
0
  9
$PEXTMIN
 10
1e+20
 20
1e+20
 30
1e+20
  9
$PEXTMAX
 10
-1e+20
 20
-1e+20
 30
-1e+20
  9
$PLIMMIN
 10
0.0
 20
0.0
  9
$PLIMMAX
 10
420.0
 20
297.0
  9
$UNITMODE
 70
0
  9
$VISRETAIN
 70
1
  9
$PLINEGEN
 70
0
  9
$PSLTSCALE
 70
1
  9
$TREEDEPTH
 70
3020
  9
$CMLSTYLE
  2
Standard
  9
$CMLJUST
 70
0
  9
$CMLSCALE
 40
20.0
  9
$PROXYGRAPHICS
 70
1
  9
$MEASUREMENT
 70
1
  9
$CELWEIGHT
370
-1
  9
$ENDCAPS
280
0
  9
$JOINSTYLE
280
0
  9
$LWDISPLAY
290
1
  9
$INSUNITS
 70
4
  9
$HYPERLINKBASE
  1

  9
$STYLESHEET
  1

  9
$XEDIT
290
1
  9
$CEPSNTYPE
380
0
  9
$PSTYLEMODE
290
1
  9
$FINGERPRINTGUID
  2
{6533111C-FDFD-4FB0-91A6-AF83093E8E13}
  9
$VERSIONGUID
  2
{03A4B878-F7B7-44E2-8631-2361A4C87135}
  9
$EXTNAMES
290
1
  9
$PSVPSCALE
 40
0.0
  9
$OLESTARTUP
290
0
  9
$SORTENTS
280
127
  9
$INDEXCTL
280
0
  9
$HIDETEXT
280
1
  9
$XCLIPFRAME
280
1
  9
$HALOGAP
280
0
  9
$OBSCOLOR
 70
257
  9
$OBSLTYPE
280
0
  9
$INTERSECTIONDISPLAY
280
0
  9
$INTERSECTIONCOLOR
 70
257
  9
$DIMASSOC
280
2
  9
$PROJECTNAME
  1

  9
$CAMERADISPLAY
290
0
  9
$LENSLENGTH
 40
50.0
  9
$CAMERAHEIGHT
 40
0.0
  9
$STEPSPERSEC
 40
24.0
  9
$STEPSIZE
 40
100.0
  9
$3DDWFPREC
 40
2.0
  9
$PSOLWIDTH
 40
0.005
  9
$PSOLHEIGHT
 40
0.08
  9
$LOFTANG1
 40
1.570796326795
  9
$LOFTANG2
 40
1.570796326795
  9
$LOFTMAG1
 40
0.0
  9
$LOFTMAG2
 40
0.0
  9
$LOFTPARAM
 70
7
  9
$LOFTNORMALS
280
1
  9
$LATITUDE
 40
37.795
  9
$LONGITUDE
 40
-122.394
  9
$NORTHDIRECTION
 40
0.0
  9
$TIMEZONE
 70
-8000
  9
$LIGHTGLYPHDISPLAY
280
1
  9
$TILEMODELIGHTSYNCH
280
1
  9
$CMATERIAL
347
20
  9
$SOLIDHIST
280
0
  9
$SHOWHIST
280
1
  9
$DWFFRAME
280
2
  9
$DGNFRAME
280
2
  9
$REALWORLDSCALE
290
1
  9
$INTERFERECOLOR
 62
256
  9
$CSHADOW
280
0
  9
$SHADOWPLANELOCATION
 40
0.0
  0
ENDSEC
  0
SECTION
  2
CLASSES
  0
CLASS
  1
ACDBDICTIONARYWDFLT
  2
AcDbDictionaryWithDefault
  3
ObjectDBX Classes
 90
0
 91
0
280
0
281
0
  0
CLASS
  1
SUN
  2
AcDbSun
  3
SCENEOE
 90
1153
 91
0
280
0
281
0
  0
CLASS
  1
VISUALSTYLE
  2
AcDbVisualStyle
  3
ObjectDBX Classes
 90
4095
 91
0
280
0
281
0
  0
CLASS
  1
MATERIAL
  2
AcDbMaterial
  3
ObjectDBX Classes
 90
1153
 91
0
280
0
281
0
  0
CLASS
  1
SCALE
  2
AcDbScale
  3
ObjectDBX Classes
 90
1153
 91
0
280
0
281
0
  0
CLASS
  1
TABLESTYLE
  2
AcDbTableStyle
  3
ObjectDBX Classes
 90
4095
 91
0
280
0
281
0
  0
CLASS
  1
MLEADERSTYLE
  2
AcDbMLeaderStyle
  3
ACDB_MLEADERSTYLE_CLASS
 90
4095
 91
0
280
0
281
0
  0
CLASS
  1
DICTIONARYVAR
  2
AcDbDictionaryVar
  3
ObjectDBX Classes
 90
0
 91
0
280
0
281
0
  0
CLASS
  1
CELLSTYLEMAP
  2
AcDbCellStyleMap
  3
ObjectDBX Classes
 90
1152
 91
0
280
0
281
0
  0
CLASS
  1
MENTALRAYRENDERSETTINGS
  2
AcDbMentalRayRenderSettings
  3
SCENEOE
 90
1024
 91
0
280
0
281
0
  0
CLASS
  1
ACDBDETAILVIEWSTYLE
  2
AcDbDetailViewStyle
  3
ObjectDBX Classes
 90
1025
 91
0
280
0
281
0
  0
CLASS
  1
ACDBSECTIONVIEWSTYLE
  2
AcDbSectionViewStyle
  3
ObjectDBX Classes
 90
1025
 91
0
280
0
281
0
  0
CLASS
  1
RASTERVARIABLES
  2
AcDbRasterVariables
  3
ISM
 90
0
 91
0
280
0
281
0
  0
CLASS
  1
ACDBPLACEHOLDER
  2
AcDbPlaceHolder
  3
ObjectDBX Classes
 90
0
 91
0
280
0
281
0
  0
CLASS
  1
LAYOUT
  2
AcDbLayout
  3
ObjectDBX Classes
 90
0
 91
0
280
0
281
0
  0
ENDSEC
  0
SECTION
  2
TABLES
  0
TABLE
  2
VPORT
  5
8
330
0
100
AcDbSymbolTable
 70
1
  0
VPORT
  5
23
330
8
100
AcDbSymbolTableRecord
100
AcDbViewportTableRecord
  2
*Active
 70
0
 10
0.0
 20
0.0
 11
1.0
 21
1.0
 12
0.0
 22
0.0
 13
0.0
 23
0.0
 14
0.5
 24
0.5
 15
0.5
 25
0.5
 16
0.0
 26
0.0
 36
1.0
 17
0.0
 27
0.0
 37
0.0
 40
1000.0
 41
1.34
 42
50.0
 43
0.0
 44
0.0
 50
0.0
 51
0.0
 71
0
 72
1000
 73
1
 74
3
 75
0
 76
0
 77
0
 78
0
281
0
 65
0
146
0.0
  0
ENDTAB
  0
TABLE
  2
LTYPE
  5
2
330
0
100
AcDbSymbolTable
 70
6
  0
LTYPE
  5
24
330
2
100
AcDbSymbolTableRecord
100
AcDbLinetypeTableRecord
  2
ByBlock
 70
0
  3

 72
65
 73
0
 40
0.0
  0
LTYPE
  5
25
330
2
100
AcDbSymbolTableRecord
100
AcDbLinetypeTableRecord
  2
ByLayer
 70
0
  3

 72
65
 73
0
 40
0.0
  0
LTYPE
  5
26
330
2
100
AcDbSymbolTableRecord
100
AcDbLinetypeTableRecord
  2
Continuous
 70
0
  3

 72
65
 73
0
 40
0.0
  0
LTYPE
  5
30
330
2
100
AcDbSymbolTableRecord
100
AcDbLinetypeTableRecord
  2
DASHED
 70
0
  3
Штриховая __ __ __ __
 72
65
 73
2
 40
10.0
 49
5.0
 74
0
 49
-2.5
 74
0
  0
LTYPE
  5
31
330
2
100
AcDbSymbolTableRecord
100
AcDbLinetypeTableRecord
  2
DASHDOT
 70
0
  3
Штрихпунктирная __.__.__.__
 72
65
 73
4
 40
12.0
 49
5.0
 74
0
 49
-2.5
 74
0
 49
0.0
 74
0
 49
-2.5
 74
0
  0
LTYPE
  5
32
330
2
100
AcDbSymbolTableRecord
100
AcDbLinetypeTableRecord
  2
DASHDOT2
 70
0
  3
Штрихпунктирная с двумя точками __..__..__..
 72
65
 73
6
 40
14.0
 49
5.0
 74
0
 49
-2.5
 74
0
 49
0.0
 74
0
 49
-2.5
 74
0
 49
0.0
 74
0
 49
-2.5
 74
0
  0
ENDTAB
  0
TABLE
  2
LAYER
  5
1
330
0
100
AcDbSymbolTable
 70
3
  0
LAYER
  5
27
330
1
100
AcDbSymbolTableRecord
100
AcDbLayerTableRecord
  2
0
 70
0
 62
7
  6
Continuous
370
-3
390
13
347
21
  0
LAYER
  5
28
330
1
100
AcDbSymbolTableRecord
100
AcDbLayerTableRecord
  2
Defpoints
 70
0
 62
7
  6
Continuous
290
0
370
-3
390
13
347
21
  0
LAYER
  5
33
330
1
100
AcDbSymbolTableRecord
100
AcDbLayerTableRecord
  2
tmp-broken
 70
0
 62
250
420
0
  6
Continuous
370
40
390
13
347
21
  0
ENDTAB
  0
TABLE
  2
STYLE
  5
5
330
0
100
AcDbSymbolTable
 70
1
  0
STYLE
  5
29
330
5
100
AcDbSymbolTableRecord
100
AcDbTextStyleTableRecord
  2
Standard
 70
0
 40
0.0
 41
1.0
 50
0.0
 71
0
 42
2.5
  3
txt
  4

  0
ENDTAB
  0
TABLE
  2
VIEW
  5
7
330
0
100
AcDbSymbolTable
 70
0
  0
ENDTAB
  0
TABLE
  2
UCS
  5
6
330
0
100
AcDbSymbolTable
 70
0
  0
ENDTAB
  0
TABLE
  2
APPID
  5
3
330
0
100
AcDbSymbolTable
 70
4
  0
APPID
  5
2A
330
3
100
AcDbSymbolTableRecord
100
AcDbRegAppTableRecord
  2
ACAD
 70
0
  0
APPID
  5
2F
330
3
100
AcDbSymbolTableRecord
100
AcDbRegAppTableRecord
  2
GEO_MODELER
 70
0
  0
APPID
  5
36
330
3
100
AcDbSymbolTableRecord
100
AcDbRegAppTableRecord
  2
HATCHBACKGROUNDCOLOR
 70
0
  0
APPID
  5
37
330
3
100
AcDbSymbolTableRecord
100
AcDbRegAppTableRecord
  2
EZDXF
 70
0
  0
ENDTAB
  0
TABLE
  2
DIMSTYLE
  5
4
330
0
100
AcDbSymbolTable
 70
1
100
AcDbDimStyleTable
  0
DIMSTYLE
105
2B
330
4
100
AcDbSymbolTableRecord
100
AcDbDimStyleTableRecord
  2
Standard
 70
0
 40
1.0
 41
2.5
 42
0.625
 43
3.75
 44
1.25
 45
0.0
 46
0.0
 47
0.0
 48
0.0
 49
2.5
140
2.5
141
2.5
142
0.0
143
0.03937007874
144
1.0
145
0.0
146
1.0
147
0.625
148
0.0
 69
0
 70
0
 71
0
 72
0
 73
0
 74
0
 75
0
 76
0
 77
1
 78
8
 79
3
170
0
171
3
172
1
173
0
174
0
175
0
176
0
177
0
178
0
179
2
271
2
272
2
273
2
274
3
275
0
276
0
277
2
278
44
279
0
280
0
281
0
282
0
283
0
284
8
285
0
286
0
288
0
289
3
290
0
371
-2
372
-2
  0
ENDTAB
  0
TABLE
  2
BLOCK_RECORD
  5
9
330
0
100
AcDbSymbolTable
 70
2
  0
BLOCK_RECORD
  5
17
330
9
100
AcDbSymbolTableRecord
100
AcDbBlockTableRecord
  2
*Model_Space
340
1A
 70
0
280
1
281
0
  0
BLOCK_RECORD
  5
1B
330
9
100
AcDbSymbolTableRecord
100
AcDbBlockTableRecord
  2
*Paper_Space
340
1E
 70
0
280
1
281
0
  0
ENDTAB
  0
ENDSEC
  0
SECTION
  2
BLOCKS
  0
BLOCK
  5
18
330
17
100
AcDbEntity
  8
0
100
AcDbBlockBegin
  2
*Model_Space
 70
0
 10
0.0
 20
0.0
 30
0.0
  3
*Model_Space
  1

  0
ENDBLK
  5
19
330
17
100
AcDbEntity
  8
0
100
AcDbBlockEnd
  0
BLOCK
  5
1C
330
1B
100
AcDbEntity
  8
0
100
AcDbBlockBegin
  2
*Paper_Space
 70
0
 10
0.0
 20
0.0
 30
0.0
  3
*Paper_Space
  1

  0
ENDBLK
  5
1D
330
1B
100
AcDbEntity
  8
0
100
AcDbBlockEnd
  0
ENDSEC
  0
SECTION
  2
ENTITIES
  0
LWPOLYLINE
  5
34
330
17
100
AcDbEntity
  8
tmp-broken
  6
Continuous
 62
250
370
40
420
0
100
AcDbPolyline
 90
255
 70
1
 10
8.0
 20
0.0
 10
28.5
 20
0.0
 10
29.833333333333332
 20
1.75
 10
31.166666666666664
 20
-1.75
 10
32.5
 20
0.0
 10
38.0
 20
0.0
 10
39.333333333333336
 20
1.75
 10
40.66666666666667
 20
-1.75
 10
42.0
 20
0.0
 10
47.5
 20
0.0
 10
48.833333333333336
 20
1.75
 10
50.16666666666667
 20
-1.75
 10
51.5
 20
0.0
 10
72.0
 20
0.0
 10
72.25128607262502
 20
0.0039475170741472
 10
72.50232415623451
 20
0.015786172573827528
 10
72.75286650654812
 20
0.03550428317536003
 10
73.00266586851444
 20
0.06308238948417699
 10
73.25147572032185
 20
0.09849327523889784
 10
73.4990505166858
 20
0.14170199417049112
 10
73.74514593117235
 20
0.1926659044900214
 10
73.98951909731883
 20
0.2513347109709514
 10
74.23192884831383
 20
0.3176505145844555
 10
74.47213595499957
 20
0.39154786963877175
 10
74.70990336196233
 20
0.47295384836619636
 10
74.94499642147743
 20
0.5617881128939892
 10
75.17718312507824
 20
0.6579629945281509
 10
75.40623433252058
 20
0.7613835802718443
 10
75.63192399791637
 20
0.8719478064930577
 10
75.85402939281373
 20
0.9895465596490913
 10
76.07233132600297
 20
1.1140637839684517
 10
76.28661435983197
 20
1.2453765959838794
 10
76.49666702281705
 20
1.3833554058035054
 10
76.70228201833979
 20
1.5278640450004204
 10
76.90325642922382
 20
1.6787599009944767
 10
77.09939191798952
 20
1.835894057793686
 10
77.29049492258922
 20
1.9991114429563241
 10
77.4763768474295
 20
2.1682509806287076
 10
77.65685424949238
 20
2.3431457505076194
 10
77.83174901937129
 20
2.523623152570491
 10
78.00088855704368
 20
2.7095050774107854
 10
78.16410594220632
 20
2.900608082010483
 10
78.32124009900552
 20
3.096743570776188
 10
78.47213595499957
 20
3.297717981660215
 10
78.6166445941965
 20
3.5033329771829553
 10
78.75462340401612
 20
3.7133856401680276
 10
78.88593621603155
 20
3.9276686739970303
 10
79.01045344035091
 20
4.145970607186279
 10
79.12805219350695
 20
4.368076002083626
 10
79.23861641972816
 20
4.593765667479419
 10
79.34203700547185
 20
4.822816874921756
 10
79.43821188710601
 20
5.055003578522576
 10
79.5270461516338
 20
5.290096638037669
 10
79.60845213036123
 20
5.52786404500042
 10
79.68234948541554
 20
5.768071151686165
 10
79.74866528902905
 20
6.010480902681161
 10
79.80733409550999
 20
6.254854068827659
 10
79.85829800582951
 20
6.500949483314203
 10
79.9015067247611
 20
6.748524279678153
 10
79.93691761051582
 20
6.997334131485566
 10
79.96449571682464
 20
7.2471334934518845
 10
79.98421382742617
 20
7.497675843765492
 10
79.99605248292585
 20
7.748713927374974
 10
80.0
 20
8.0
 10
80.0
 20
9.2
 10
78.25
 20
10.533333333333333
 10
81.75
 20
11.866666666666667
 10
80.0
 20
13.2
 10
80.0
 20
18.0
 10
78.25
 20
19.333333333333332
 10
81.75
 20
20.666666666666664
 10
80.0
 20
22.0
 10
80.0
 20
26.8
 10
78.25
 20
28.133333333333333
 10
81.75
 20
29.466666666666665
 10
80.0
 20
30.8
 10
80.0
 20
32.0
 10
79.99605248292585
 20
32.25128607262503
 10
79.98421382742617
 20
32.50232415623451
 10
79.96449571682464
 20
32.752866506548116
 10
79.93691761051582
 20
33.002665868514434
 10
79.9015067247611
 20
33.25147572032185
 10
79.85829800582951
 20
33.4990505166858
 10
79.80733409550999
 20
33.74514593117234
 10
79.74866528902905
 20
33.98951909731884
 10
79.68234948541554
 20
34.231928848313835
 10
79.60845213036123
 20
34.47213595499958
 10
79.5270461516338
 20
34.70990336196233
 10
79.43821188710601
 20
34.94499642147743
 10
79.34203700547185
 20
35.177183125078244
 10
79.23861641972816
 20
35.40623433252058
 10
79.12805219350695
 20
35.631923997916374
 10
79.01045344035091
 20
35.85402939281372
 10
78.88593621603155
 20
36.07233132600297
 10
78.75462340401612
 20
36.28661435983197
 10
78.6166445941965
 20
36.49666702281704
 10
78.47213595499957
 20
36.70228201833979
 10
78.32124009900552
 20
36.90325642922381
 10
78.16410594220632
 20
37.099391917989514
 10
78.00088855704368
 20
37.29049492258922
 10
77.83174901937129
 20
37.476376847429506
 10
77.65685424949238
 20
37.65685424949238
 10
77.4763768474295
 20
37.831749019371294
 10
77.29049492258922
 20
38.00088855704368
 10
77.09939191798952
 20
38.16410594220631
 10
76.90325642922382
 20
38.32124009900552
 10
76.70228201833979
 20
38.47213595499958
 10
76.49666702281705
 20
38.616644594196494
 10
76.28661435983197
 20
38.75462340401612
 10
76.07233132600297
 20
38.88593621603155
 10
75.85402939281371
 20
39.01045344035091
 10
75.63192399791637
 20
39.128052193506946
 10
75.40623433252058
 20
39.23861641972816
 10
75.17718312507824
 20
39.34203700547185
 10
74.94499642147743
 20
39.43821188710601
 10
74.70990336196233
 20
39.527046151633805
 10
74.47213595499957
 20
39.60845213036123
 10
74.23192884831384
 20
39.68234948541554
 10
73.98951909731883
 20
39.74866528902905
 10
73.74514593117235
 20
39.80733409550998
 10
73.4990505166858
 20
39.85829800582951
 10
73.25147572032185
 20
39.901506724761106
 10
73.00266586851444
 20
39.93691761051582
 10
72.75286650654812
 20
39.96449571682464
 10
72.50232415623451
 20
39.984213827426174
 10
72.25128607262502
 20
39.996052482925855
 10
72.0
 20
40.0
 10
51.5
 20
40.0
 10
50.166666666666664
 20
38.25
 10
48.83333333333333
 20
41.75
 10
47.5
 20
40.0
 10
42.0
 20
40.0
 10
40.666666666666664
 20
38.25
 10
39.33333333333333
 20
41.75
 10
38.0
 20
40.0
 10
32.5
 20
40.0
 10
31.166666666666668
 20
38.25
 10
29.833333333333336
 20
41.75
 10
28.5
 20
40.0
 10
8.0
 20
40.0
 10
7.748713927374974
 20
39.996052482925855
 10
7.497675843765493
 20
39.984213827426174
 10
7.247133493451887
 20
39.96449571682464
 10
6.997334131485567
 20
39.93691761051582
 10
6.748524279678153
 20
39.901506724761106
 10
6.500949483314203
 20
39.85829800582951
 10
6.25485406882766
 20
39.80733409550998
 10
6.010480902681163
 20
39.74866528902905
 10
5.768071151686167
 20
39.68234948541554
 10
5.527864045000421
 20
39.60845213036123
 10
5.290096638037669
 20
39.527046151633805
 10
5.055003578522577
 20
39.438211887106014
 10
4.822816874921756
 20
39.34203700547185
 10
4.593765667479419
 20
39.23861641972815
 10
4.368076002083626
 20
39.128052193506946
 10
4.14597060718628
 20
39.01045344035091
 10
3.9276686739970295
 20
38.88593621603155
 10
3.7133856401680285
 20
38.75462340401612
 10
3.5033329771829544
 20
38.616644594196494
 10
3.297717981660216
 20
38.47213595499958
 10
3.09674357077619
 20
38.32124009900552
 10
2.900608082010482
 20
38.16410594220631
 10
2.7095050774107863
 20
38.00088855704368
 10
2.52362315257049
 20
37.831749019371294
 10
2.3431457505076203
 20
37.65685424949238
 10
2.1682509806287094
 20
37.47637684742951
 10
1.9991114429563241
 20
37.29049492258922
 10
1.835894057793685
 20
37.099391917989514
 10
1.6787599009944767
 20
36.90325642922381
 10
1.5278640450004213
 20
36.70228201833979
 10
1.3833554058035071
 20
36.49666702281705
 10
1.2453765959838794
 20
36.28661435983197
 10
1.11406378396845
 20
36.07233132600297
 10
0.9895465596490913
 20
35.85402939281372
 10
0.8719478064930577
 20
35.631923997916374
 10
0.7613835802718452
 20
35.40623433252058
 10
0.6579629945281509
 20
35.177183125078244
 10
0.5617881128939892
 20
34.94499642147743
 10
0.47295384836619636
 20
34.70990336196233
 10
0.39154786963877175
 20
34.47213595499958
 10
0.31765051458445637
 20
34.231928848313835
 10
0.2513347109709523
 20
33.98951909731884
 10
0.1926659044900214
 20
33.745145931172345
 10
0.14170199417049023
 20
33.4990505166858
 10
0.09849327523889873
 20
33.25147572032185
 10
0.06308238948417788
 20
33.002665868514434
 10
0.03550428317536003
 20
32.752866506548116
 10
0.015786172573827528
 20
32.50232415623451
 10
0.0039475170741472
 20
32.25128607262503
 10
0.0
 20
32.0
 10
0.0
 20
30.8
 10
1.75
 20
29.46666666666667
 10
-1.75
 20
28.133333333333336
 10
0.0
 20
26.8
 10
0.0
 20
22.0
 10
1.75
 20
20.666666666666668
 10
-1.75
 20
19.333333333333336
 10
0.0
 20
18.0
 10
0.0
 20
13.2
 10
1.75
 20
11.866666666666665
 10
-1.75
 20
10.533333333333331
 10
0.0
 20
9.2
 10
0.0
 20
8.0
 10
0.0
 20
8.000000000000002
 10
0.0039475170741472
 20
7.748713927374976
 10
0.015786172573827528
 20
7.497675843765493
 10
0.03550428317536003
 20
7.247133493451887
 10
0.06308238948417699
 20
6.997334131485566
 10
0.09849327523889784
 20
6.748524279678154
 10
0.14170199417049023
 20
6.500949483314205
 10
0.19266590449002052
 20
6.25485406882766
 10
0.2513347109709505
 20
6.010480902681163
 10
0.3176505145844555
 20
5.768071151686166
 10
0.39154786963877086
 20
5.527864045000422
 10
0.4729538483661955
 20
5.290096638037671
 10
0.5617881128939883
 20
5.055003578522577
 10
0.65796299452815
 20
4.822816874921757
 10
0.7613835802718443
 20
4.593765667479419
 10
0.8719478064930568
 20
4.368076002083627
 10
0.9895465596490904
 20
4.14597060718628
 10
1.1140637839684508
 20
3.9276686739970303
 10
1.2453765959838785
 20
3.7133856401680285
 10
1.3833554058035054
 20
3.5033329771829553
 10
1.5278640450004204
 20
3.297717981660216
 10
1.6787599009944758
 20
3.09674357077619
 10
1.835894057793686
 20
2.900608082010483
 10
1.9991114429563224
 20
2.7095050774107863
 10
2.1682509806287076
 20
2.52362315257049
 10
2.3431457505076185
 20
2.3431457505076203
 10
2.5236231525704884
 20
2.1682509806287094
 10
2.7095050774107845
 20
1.9991114429563241
 10
2.900608082010484
 20
1.835894057793685
 10
3.096743570776188
 20
1.6787599009944767
 10
3.297717981660214
 20
1.5278640450004213
 10
3.5033329771829527
 20
1.3833554058035071
 10
3.713385640168023
 20
1.245376595983882
 10
3.9276686739970312
 20
1.11406378396845
 10
4.145970607186278
 20
0.9895465596490913
 10
4.368076002083624
 20
0.8719478064930577
 10
4.593765667479417
 20
0.7613835802718452
 10
4.822816874921758
 20
0.65796299452815
 10
5.0550035785225775
 20
0.5617881128939883
 10
5.290096638037669
 20
0.47295384836619636
 10
5.5278640450004195
 20
0.39154786963877175
 10
5.768071151686163
 20
0.31765051458445637
 10
6.010480902681158
 20
0.2513347109709523
 10
6.254854068827655
 20
0.1926659044900223
 10
6.500949483314203
 20
0.14170199417049023
 10
6.7485242796781515
 20
0.09849327523889873
 10
6.997334131485563
 20
0.06308238948417788
 10
7.247133493451881
 20
0.03550428317536003
 10
7.497675843765494
 20
0.015786172573827528
 10
7.748713927374974
 20
0.0039475170741472
 10
7.999999999999998
 20
0.0
 10
8.0
 20
0.0
1001
GEO_MODELER
1000
Rectangle
1040
0.0
1040
0.0
1040
80.0
1040
40.0
1040
8.0
1000
__STYLE_BROKEN__
1040
3.0
1040
5.5
  0
LWPOLYLINE
  5
35
330
17
100
AcDbEntity
  8
tmp-broken
  6
Continuous
 62
250
370
40
420
0
100
AcDbPolyline
 90
79
 70
1
 10
140.0
 20
-10.0
 10
143.03108891324553
 20
-8.25
 10
143.31078945162477
 20
-6.067788876710566
 10
146.21548999000402
 20
-8.432211123289434
 10
146.4951905283833
 20
-6.25
 10
151.2583302491977
 20
-3.5
 10
151.53803078757696
 20
-1.3177888767105657
 10
154.4427313259562
 20
-3.682211123289435
 10
154.72243186433548
 20
-1.5
 10
159.4855715851499
 20
1.25
 10
159.76527212352914
 20
3.4322111232894343
 10
162.6699726619084
 20
1.0677888767105657
 10
162.94967320028766
 20
3.25
 10
165.98076211353316
 20
5.0
 10
165.98076211353316
 20
8.499999999999996
 10
164.23076211353316
 20
9.83333333333333
 10
167.73076211353316
 20
11.166666666666664
 10
165.98076211353316
 20
12.499999999999996
 10
165.98076211353316
 20
17.999999999999996
 10
164.23076211353316
 20
19.33333333333333
 10
167.73076211353316
 20
20.66666666666666
 10
165.98076211353316
 20
21.999999999999996
 10
165.98076211353316
 20
27.499999999999996
 10
164.23076211353316
 20
28.83333333333333
 10
167.73076211353316
 20
30.16666666666666
 10
165.98076211353316
 20
31.499999999999996
 10
165.98076211353316
 20
34.99999999999999
 10
162.94967320028763
 20
36.74999999999999
 10
160.9199726619084
 20
35.90112221004389
 10
161.51527212352914
 20
39.598877789956084
 10
159.48557158514987
 20
38.74999999999999
 10
154.72243186433545
 20
41.49999999999999
 10
152.6927313259562
 20
40.65112221004389
 10
153.28803078757696
 20
44.348877789956084
 10
151.25833024919768
 20
43.49999999999999
 10
146.49519052838326
 20
46.24999999999999
 10
144.46548999000402
 20
45.40112221004389
 10
145.06078945162477
 20
49.098877789956084
 10
143.0310889132455
 20
48.24999999999999
 10
140.0
 20
50.0
 10
136.96891108675447
 20
48.25
 10
136.68921054837523
 20
46.067788876710566
 10
133.78451000999598
 20
48.432211123289434
 10
133.5048094716167
 20
46.25
 10
128.7416697508023
 20
43.5
 10
128.46196921242304
 20
41.317788876710566
 10
125.5572686740438
 20
43.682211123289434
 10
125.27756813566454
 20
41.5
 10
120.51442841485013
 20
38.75
 10
120.23472787647088
 20
36.567788876710566
 10
117.33002733809164
 20
38.932211123289434
 10
117.05032679971238
 20
36.75
 10
114.01923788646684
 20
35.000000000000014
 10
114.01923788646684
 20
31.500000000000018
 10
115.76923788646684
 20
30.166666666666686
 10
112.26923788646684
 20
28.833333333333353
 10
114.01923788646684
 20
27.500000000000018
 10
114.01923788646684
 20
22.000000000000018
 10
115.76923788646684
 20
20.666666666666686
 10
112.26923788646684
 20
19.333333333333353
 10
114.01923788646684
 20
18.000000000000018
 10
114.01923788646684
 20
12.500000000000018
 10
115.76923788646684
 20
11.166666666666684
 10
112.26923788646684
 20
9.833333333333352
 10
114.01923788646684
 20
8.500000000000018
 10
114.01923788646683
 20
5.0000000000000195
 10
117.05032679971237
 20
3.2500000000000133
 10
119.08002733809161
 20
4.098877789956114
 10
118.48472787647086
 20
0.401122210043912
 10
120.51442841485012
 20
1.250000000000012
 10
125.27756813566452
 20
-1.4999999999999898
 10
127.30726867404377
 20
-0.6511222100438894
 10
126.71196921242301
 20
-4.3488777899560915
 10
128.7416697508023
 20
-3.499999999999991
 10
133.5048094716167
 20
-6.249999999999993
 10
135.53451000999596
 20
-5.4011222100438925
 10
134.9392105483752
 20
-9.098877789956095
 10
136.96891108675447
 20
-8.249999999999995
 10
140.0
 20
-10.0
1001
GEO_MODELER
1000
Polygon
1040
140.0
1040
20.0
1040
30.0
1040
6.0
1040
-1.5707963267948966
1000
__STYLE_BROKEN__
1040
3.0
1040
5.5
  0
ENDSEC
  0
SECTION
  2
OBJECTS
  0
DICTIONARY
  5
A
330
0
100
AcDbDictionary
281
1
  3
ACAD_COLOR
350
B
  3
ACAD_GROUP
350
C
  3
ACAD_LAYOUT
350
D
  3
ACAD_MATERIAL
350
E
  3
ACAD_MLEADERSTYLE
350
F
  3
ACAD_MLINESTYLE
350
10
  3
ACAD_PLOTSETTINGS
350
11
  3
ACAD_PLOTSTYLENAME
350
12
  3
ACAD_SCALELIST
350
14
  3
ACAD_TABLESTYLE
350
15
  3
ACAD_VISUALSTYLE
350
16
  3
EZDXF_META
350
2D
  0
DICTIONARY
  5
B
330
A
100
AcDbDictionary
281
1
  0
DICTIONARY
  5
C
330
A
100
AcDbDictionary
281
1
  0
DICTIONARY
  5
D
330
A
100
AcDbDictionary
281
1
  3
Model
350
1A
  3
Layout1
350
1E
  0
DICTIONARY
  5
E
330
A
100
AcDbDictionary
281
1
  3
ByBlock
350
1F
  3
ByLayer
350
20
  3
Global
350
21
  0
DICTIONARY
  5
F
330
A
100
AcDbDictionary
281
1
  3
Standard
350
2C
  0
DICTIONARY
  5
10
330
A
100
AcDbDictionary
281
1
  3
Standard
350
22
  0
DICTIONARY
  5
11
330
A
100
AcDbDictionary
281
1
  0
ACDBDICTIONARYWDFLT
  5
12
330
A
100
AcDbDictionary
281
1
  3
Normal
350
13
100
AcDbDictionaryWithDefault
340
13
  0
ACDBPLACEHOLDER
  5
13
330
12
  0
DICTIONARY
  5
14
330
A
100
AcDbDictionary
281
1
  0
DICTIONARY
  5
15
330
A
100
AcDbDictionary
281
1
  0
DICTIONARY
  5
16
330
A
100
AcDbDictionary
281
1
  0
LAYOUT
  5
1A
330
D
100
AcDbPlotSettings
  1

  4
A3
  6

 40
7.5
 41
20.0
 42
7.5
 43
20.0
 44
420.0
 45
297.0
 46
0.0
 47
0.0
 48
0.0
 49
0.0
140
0.0
141
0.0
142
1.0
143
1.0
 70
1024
 72
1
 73
0
 74
5
  7

 75
16
 76
0
 77
2
 78
300
147
1.0
148
0.0
149
0.0
100
AcDbLayout
  1
Model
 70
1
 71
0
 10
0.0
 20
0.0
 11
420.0
 21
297.0
 12
0.0
 22
0.0
 32
0.0
 14
1e+20
 24
1e+20
 34
1e+20
 15
-1e+20
 25
-1e+20
 35
-1e+20
146
0.0
 13
0.0
 23
0.0
 33
0.0
 16
1.0
 26
0.0
 36
0.0
 17
0.0
 27
1.0
 37
0.0
 76
1
330
17
  0
LAYOUT
  5
1E
330
D
100
AcDbPlotSettings
  1

  4
A3
  6

 40
7.5
 41
20.0
 42
7.5
 43
20.0
 44
420.0
 45
297.0
 46
0.0
 47
0.0
 48
0.0
 49
0.0
140
0.0
141
0.0
142
1.0
143
1.0
 70
0
 72
1
 73
0
 74
5
  7

 75
16
 76
0
 77
2
 78
300
147
1.0
148
0.0
149
0.0
100
AcDbLayout
  1
Layout1
 70
1
 71
1
 10
0.0
 20
0.0
 11
420.0
 21
297.0
 12
0.0
 22
0.0
 32
0.0
 14
1e+20
 24
1e+20
 34
1e+20
 15
-1e+20
 25
-1e+20
 35
-1e+20
146
0.0
 13
0.0
 23
0.0
 33
0.0
 16
1.0
 26
0.0
 36
0.0
 17
0.0
 27
1.0
 37
0.0
 76
1
330
1B
  0
MATERIAL
  5
1F
102
{ACAD_REACTORS
330
E
102
}
330
E
100
AcDbMaterial
  1
ByBlock
  2

 70
0
 40
1.0
 71
1
 41
1.0
 91
-1023410177
 42
1.0
 72
1
  3

 73
1
 74
1
 75
1
 44
0.5
 73
0
 45
1.0
 46
1.0
 77
1
  4

 78
1
 79
1
170
1
 48
1.0
171
1
  6

172
1
173
1
174
1
140
1.0
141
1.0
175
1
  7

176
1
177
1
178
1
143
1.0
179
1
  8

270
1
271
1
272
1
145
1.0
146
1.0
273
1
  9

274
1
275
1
276
1
 42
1.0
 72
1
  3

 73
1
 74
1
 75
1
 94
63
  0
MATERIAL
  5
20
102
{ACAD_REACTORS
330
E
102
}
330
E
100
AcDbMaterial
  1
ByLayer
  2

 70
0
 40
1.0
 71
1
 41
1.0
 91
-1023410177
 42
1.0
 72
1
  3

 73
1
 74
1
 75
1
 44
0.5
 73
0
 45
1.0
 46
1.0
 77
1
  4

 78
1
 79
1
170
1
 48
1.0
171
1
  6

172
1
173
1
174
1
140
1.0
141
1.0
175
1
  7

176
1
177
1
178
1
143
1.0
179
1
  8

270
1
271
1
272
1
145
1.0
146
1.0
273
1
  9

274
1
275
1
276
1
 42
1.0
 72
1
  3

 73
1
 74
1
 75
1
 94
63
  0
MATERIAL
  5
21
102
{ACAD_REACTORS
330
E
102
}
330
E
100
AcDbMaterial
  1
Global
  2

 70
0
 40
1.0
 71
1
 41
1.0
 91
-1023410177
 42
1.0
 72
1
  3

 73
1
 74
1
 75
1
 44
0.5
 73
0
 45
1.0
 46
1.0
 77
1
  4

 78
1
 79
1
170
1
 48
1.0
171
1
  6

172
1
173
1
174
1
140
1.0
141
1.0
175
1
  7

176
1
177
1
178
1
143
1.0
179
1
  8

270
1
271
1
272
1
145
1.0
146
1.0
273
1
  9

274
1
275
1
276
1
 42
1.0
 72
1
  3

 73
1
 74
1
 75
1
 94
63
  0
MLINESTYLE
  5
22
102
{ACAD_REACTORS
330
10
102
}
330
10
100
AcDbMlineStyle
  2
Standard
 70
0
  3

 62
256
 51
90.0
 52
90.0
 71
2
 49
0.5
 62
256
  6
BYLAYER
 49
-0.5
 62
256
  6
BYLAYER
  0
MLEADERSTYLE
  5
2C
102
{ACAD_REACTORS
330
F
102
}
330
F
100
AcDbMLeaderStyle
179
2
170
2
171
1
172
0
 90
2
 40
0.0
 41
0.0
173
1
 91
-1056964608
 92
-2
290
1
 42
2.0
291
1
 43
8.0
  3
Standard
 44
4.0
300

342
29
174
1
175
1
176
0
178
1
 93
-1056964608
 45
4.0
292
0
297
0
 46
4.0
 94
-1056964608
 47
1.0
 49
1.0
140
1.0
294
1
141
0.0
177
0
142
1.0
295
0
296
0
143
3.75
271
0
272
9
273
9
  0
DICTIONARY
  5
2D
330
A
100
AcDbDictionary
280
1
281
1
  3
CREATED_BY_EZDXF
350
2E
  3
WRITTEN_BY_EZDXF
350
38
  0
DICTIONARYVAR
  5
2E
330
2D
100
DictionaryVariables
280
0
  1
1.4.3 @ 2026-03-30T19:37:28.467570+00:00
  0
DICTIONARYVAR
  5
38
330
2D
100
DictionaryVariables
280
0
  1
1.4.3 @ 2026-03-30T19:37:28.470343+00:00
  0
ENDSEC
  0
EOF
