  0
SECTION
  2
HEADER
  9
$ACADVER
  1
AC1024
  9
$ACADMAINTVER
 70
6
  9
$DWGCODEPAGE
  3
ANSI_1252
  9
$LASTSAVEDBY
  1
ezdxf
  9
$INSBASE
 10
0.0
 20
0.0
 30
0.0
  9
$EXTMIN
 10
1e+20
 20
1e+20
 30
1e+20
  9
$EXTMAX
 10
-1e+20
 20
-1e+20
 30
-1e+20
  9
$LIMMIN
 10
0.0
 20
0.0
  9
$LIMMAX
 10
420.0
 20
297.0
  9
$ORTHOMODE
 70
0
  9
$REGENMODE
 70
1
  9
$FILLMODE
 70
1
  9
$QTEXTMODE
 70
0
  9
$MIRRTEXT
 70
1
  9
$LTSCALE
 40
1.0
  9
$ATTMODE
 70
1
  9
$TEXTSIZE
 40
2.5
  9
$TRACEWID
 40
1.0
  9
$TEXTSTYLE
  7
Standard
  9
$CLAYER
  8
0
  9
$CELTYPE
  6
ByLayer
  9
$CECOLOR
 62
256
  9
$CELTSCALE
 40
1.0
  9
$DISPSILH
 70
0
  9
$DIMSCALE
 40
1.0
  9
$DIMASZ
 40
2.5
  9
$DIMEXO
 40
0.625
  9
$DIMDLI
 40
3.75
  9
$DIMRND
 40
0.0
  9
$DIMDLE
 40
0.0
  9
$DIMEXE
 40
1.25
  9
$DIMTP
 40
0.0
  9
$DIMTM
 40
0.0
  9
$DIMTXT
 40
2.5
  9
$DIMCEN
 40
2.5
  9
$DIMTSZ
 40
0.0
  9
$DIMTOL
 70
0
  9
$DIMLIM
 70
0
  9
$DIMTIH
 70
0
  9
$DIMTOH
 70
0
  9
$DIMSE1
 70
0
  9
$DIMSE2
 70
0
  9
$DIMTAD
 70
1
  9
$DIMZIN
 70
8
  9
$DIMBLK
  1

  9
$DIMASO
 70
1
  9
$DIMSHO
 70
1
  9
$DIMPOST
  1

  9
$DIMAPOST
  1

  9
$DIMALT
 70
0
  9
$DIMALTD
 70
3
  9
$DIMALTF
 40
0.03937007874
  9
$DIMLFAC
 40
1.0
  9
$DIMTOFL
 70
1
  9
$DIMTVP
 40
0.0
  9
$DIMTIX
 70
0
  9
$DIMSOXD
 70
0
  9
$DIMSAH
 70
0
  9
$DIMBLK1
  1

  9
$DIMBLK2
  1

  9
$DIMSTYLE
  2
ISO-25
  9
$DIMCLRD
 70
0
  9
$DIMCLRE
 70
0
  9
$DIMCLRT
 70
0
  9
$DIMTFAC
 40
1.0
  9
$DIMGAP
 40
0.625
  9
$DIMJUST
 70
0
  9
$DIMSD1
 70
0
  9
$DIMSD2
 70
0
  9
$DIMTOLJ
 70
0
  9
$DIMTZIN
 70
8
  9
$DIMALTZ
 70
0
  9
$DIMALTTZ
 70
0
  9
$DIMUPT
 70
0
  9
$DIMDEC
 70
2
  9
$DIMTDEC
 70
2
  9
$DIMALTU
 70
2
  9
$DIMALTTD
 70
3
  9
$DIMTXSTY
  7
Standard
  9
$DIMAUNIT
 70
0
  9
$DIMADEC
 70
0
  9
$DIMALTRND
 40
0.0
  9
$DIMAZIN
 70
0
  9
$DIMDSEP
 70
44
  9
$DIMATFIT
 70
3
  9
$DIMFRAC
 70
0
  9
$DIMLDRBLK
  1

  9
$DIMLUNIT
 70
2
  9
$DIMLWD
 70
-2
  9
$DIMLWE
 70
-2
  9
$DIMTMOVE
 70
0
  9
$DIMFXL
 40
1.0
  9
$DIMFXLON
 70
0
  9
$DIMJOGANG
 40
0.785398163397
  9
$DIMTFILL
 70
0
  9
$DIMTFILLCLR
 70
0
  9
$DIMARCSYM
 70
0
  9
$DIMLTYPE
  6

  9
$DIMLTEX1
  6

  9
$DIMLTEX2
  6

  9
$DIMTXTDIRECTION
 70
0
  9
$LUNITS
 70
2
  9
$LUPREC
 70
4
  9
$SKETCHINC
 40
1.0
  9
$FILLETRAD
 40
10.0
  9
$AUNITS
 70
0
  9
$AUPREC
 70
2
  9
$MENU
  1
.
  9
$ELEVATION
 40
0.0
  9
$PELEVATION
 40
0.0
  9
$THICKNESS
 40
0.0
  9
$LIMCHECK
 70
0
  9
$CHAMFERA
 40
0.0
  9
$CHAMFERB
 40
0.0
  9
$CHAMFERC
 40
0.0
  9
$CHAMFERD
 40
0.0
  9
$SKPOLY
 70
0
  9
$TDCREATE
 40
2461130.916377315
  9
$TDUCREATE
 40
2458532.153996898
  9
$TDUPDATE
 40
2461130.916377315
  9
$TDUUPDATE
 40
2458532.1544311
  9
$TDINDWG
 40
0.0
  9
$TDUSRTIMER
 40
0.0
  9
$USRTIMER
 70
1
  9
$ANGBASE
 50
0.0
  9
$ANGDIR
 70
0
  9
$PDMODE
 70
0
  9
$PDSIZE
 40
0.0
  9
$PLINEWID
 40
0.0
  9
$SPLFRAME
 70
0
  9
$SPLINETYPE
 70
6
  9
$SPLINESEGS
 70
8
  9
$HANDSEED
  5
3E
  9
$SURFTAB1
 70
6
  9
$SURFTAB2
 70
6
  9
$SURFTYPE
 70
6
  9
$SURFU
 70
6
  9
$SURFV
 70
6
  9
$UCSBASE
  2

  9
$UCSNAME
  2

  9
$UCSORG
 10
0.0
 20
0.0
 30
0.0
  9
$UCSXDIR
 10
1.0
 20
0.0
 30
0.0
  9
$UCSYDIR
 10
0.0
 20
1.0
 30
0.0
  9
$UCSORTHOREF
  2

  9
$UCSORTHOVIEW
 70
0
  9
$UCSORGTOP
 10
0.0
 20
0.0
 30
0.0
  9
$UCSORGBOTTOM
 10
0.0
 20
0.0
 30
0.0
  9
$UCSORGLEFT
 10
0.0
 20
0.0
 30
0.0
  9
$UCSORGRIGHT
 10
0.0
 20
0.0
 30
0.0
  9
$UCSORGFRONT
 10
0.0
 20
0.0
 30
0.0
  9
$UCSORGBACK
 10
0.0
 20
0.0
 30
0.0
  9
$PUCSBASE
  2

  9
$PUCSNAME
  2

  9
$PUCSORG
 10
0.0
 20
0.0
 30
0.0
  9
$PUCSXDIR
 10
1.0
 20
0.0
 30
0.0
  9
$PUCSYDIR
 10
0.0
 20
1.0
 30
0.0
  9
$PUCSORTHOREF
  2

  9
$PUCSORTHOVIEW
 70
0
  9
$PUCSORGTOP
 10
0.0
 20
0.0
 30
0.0
  9
$PUCSORGBOTTOM
 10
0.0
 20
0.0
 30
0.0
  9
$PUCSORGLEFT
 10
0.0
 20
0.0
 30
0.0
  9
$PUCSORGRIGHT
 10
0.0
 20
0.0
 30
0.0
  9
$PUCSORGFRONT
 10
0.0
 20
0.0
 30
0.0
  9
$PUCSORGBACK
 10
0.0
 20
0.0
 30
0.0
  9
$USERI1
 70
0
  9
$USERI2
 70
0
  9
$USERI3
 70
0
  9
$USERI4
 70
0
  9
$USERI5
 70
0
  9
$USERR1
 40
0.0
  9
$USERR2
 40
0.0
  9
$USERR3
 40
0.0
  9
$USERR4
 40
0.0
  9
$USERR5
 40
0.0
  9
$WORLDVIEW
 70
1
  9
$SHADEDGE
 70
3
  9
$SHADEDIF
 70
70
  9
$TILEMODE
 70
1
  9
$MAXACTVP
 70
64
  9
$PINSBASE
 10
0.0
 20
0.0
 30
0.0
  9
$PLIMCHECK
 70
0
  9
$PEXTMIN
 10
1e+20
 20
1e+20
 30
1e+20
  9
$PEXTMAX
 10
-1e+20
 20
-1e+20
 30
-1e+20
  9
$PLIMMIN
 10
0.0
 20
0.0
  9
$PLIMMAX
 10
420.0
 20
297.0
  9
$UNITMODE
 70
0
  9
$VISRETAIN
 70
1
  9
$PLINEGEN
 70
0
  9
$PSLTSCALE
 70
1
  9
$TREEDEPTH
 70
3020
  9
$CMLSTYLE
  2
Standard
  9
$CMLJUST
 70
0
  9
$CMLSCALE
 40
20.0
  9
$PROXYGRAPHICS
 70
1
  9
$MEASUREMENT
 70
1
  9
$CELWEIGHT
370
-1
  9
$ENDCAPS
280
0
  9
$JOINSTYLE
280
0
  9
$LWDISPLAY
290
1
  9
$INSUNITS
 70
4
  9
$HYPERLINKBASE
  1

  9
$STYLESHEET
  1

  9
$XEDIT
290
1
  9
$CEPSNTYPE
380
0
  9
$PSTYLEMODE
290
1
  9
$FINGERPRINTGUID
  2
{BDC4C9BF-0E8D-47BF-A416-BE7C95F3B690}
  9
$VERSIONGUID
  2
{C489464C-4313-4BBB-83FB-2E72393247BB}
  9
$EXTNAMES
290
1
  9
$PSVPSCALE
 40
0.0
  9
$OLESTARTUP
290
0
  9
$SORTENTS
280
127
  9
$INDEXCTL
280
0
  9
$HIDETEXT
280
1
  9
$XCLIPFRAME
280
1
  9
$HALOGAP
280
0
  9
$OBSCOLOR
 70
257
  9
$OBSLTYPE
280
0
  9
$INTERSECTIONDISPLAY
280
0
  9
$INTERSECTIONCOLOR
 70
257
  9
$DIMASSOC
280
2
  9
$PROJECTNAME
  1

  9
$CAMERADISPLAY
290
0
  9
$LENSLENGTH
 40
50.0
  9
$CAMERAHEIGHT
 40
0.0
  9
$STEPSPERSEC
 40
24.0
  9
$STEPSIZE
 40
100.0
  9
$3DDWFPREC
 40
2.0
  9
$PSOLWIDTH
 40
0.005
  9
$PSOLHEIGHT
 40
0.08
  9
$LOFTANG1
 40
1.570796326795
  9
$LOFTANG2
 40
1.570796326795
  9
$LOFTMAG1
 40
0.0
  9
$LOFTMAG2
 40
0.0
  9
$LOFTPARAM
 70
7
  9
$LOFTNORMALS
280
1
  9
$LATITUDE
 40
37.795
  9
$LONGITUDE
 40
-122.394
  9
$NORTHDIRECTION
 40
0.0
  9
$TIMEZONE
 70
-8000
  9
$LIGHTGLYPHDISPLAY
280
1
  9
$TILEMODELIGHTSYNCH
280
1
  9
$CMATERIAL
347
20
  9
$SOLIDHIST
280
0
  9
$SHOWHIST
280
1
  9
$DWFFRAME
280
2
  9
$DGNFRAME
280
2
  9
$REALWORLDSCALE
290
1
  9
$INTERFERECOLOR
 62
256
  9
$CSHADOW
280
0
  9
$SHADOWPLANELOCATION
 40
0.0
  0
ENDSEC
  0
SECTION
  2
CLASSES
  0
CLASS
  1
ACDBDICTIONARYWDFLT
  2
AcDbDictionaryWithDefault
  3
ObjectDBX Classes
 90
0
 91
0
280
0
281
0
  0
CLASS
  1
SUN
  2
AcDbSun
  3
SCENEOE
 90
1153
 91
0
280
0
281
0
  0
CLASS
  1
VISUALSTYLE
  2
AcDbVisualStyle
  3
ObjectDBX Classes
 90
4095
 91
0
280
0
281
0
  0
CLASS
  1
MATERIAL
  2
AcDbMaterial
  3
ObjectDBX Classes
 90
1153
 91
0
280
0
281
0
  0
CLASS
  1
SCALE
  2
AcDbScale
  3
ObjectDBX Classes
 90
1153
 91
0
280
0
281
0
  0
CLASS
  1
TABLESTYLE
  2
AcDbTableStyle
  3
ObjectDBX Classes
 90
4095
 91
0
280
0
281
0
  0
CLASS
  1
MLEADERSTYLE
  2
AcDbMLeaderStyle
  3
ACDB_MLEADERSTYLE_CLASS
 90
4095
 91
0
280
0
281
0
  0
CLASS
  1
DICTIONARYVAR
  2
AcDbDictionaryVar
  3
ObjectDBX Classes
 90
0
 91
0
280
0
281
0
  0
CLASS
  1
CELLSTYLEMAP
  2
AcDbCellStyleMap
  3
ObjectDBX Classes
 90
1152
 91
0
280
0
281
0
  0
CLASS
  1
MENTALRAYRENDERSETTINGS
  2
AcDbMentalRayRenderSettings
  3
SCENEOE
 90
1024
 91
0
280
0
281
0
  0
CLASS
  1
ACDBDETAILVIEWSTYLE
  2
AcDbDetailViewStyle
  3
ObjectDBX Classes
 90
1025
 91
0
280
0
281
0
  0
CLASS
  1
ACDBSECTIONVIEWSTYLE
  2
AcDbSectionViewStyle
  3
ObjectDBX Classes
 90
1025
 91
0
280
0
281
0
  0
CLASS
  1
RASTERVARIABLES
  2
AcDbRasterVariables
  3
ISM
 90
0
 91
0
280
0
281
0
  0
CLASS
  1
ACDBPLACEHOLDER
  2
AcDbPlaceHolder
  3
ObjectDBX Classes
 90
0
 91
0
280
0
281
0
  0
CLASS
  1
LAYOUT
  2
AcDbLayout
  3
ObjectDBX Classes
 90
0
 91
0
280
0
281
0
  0
ENDSEC
  0
SECTION
  2
TABLES
  0
TABLE
  2
VPORT
  5
8
330
0
100
AcDbSymbolTable
 70
1
  0
VPORT
  5
23
330
8
100
AcDbSymbolTableRecord
100
AcDbViewportTableRecord
  2
*Active
 70
0
 10
0.0
 20
0.0
 11
1.0
 21
1.0
 12
0.0
 22
0.0
 13
0.0
 23
0.0
 14
0.5
 24
0.5
 15
0.5
 25
0.5
 16
0.0
 26
0.0
 36
1.0
 17
0.0
 27
0.0
 37
0.0
 40
1000.0
 41
1.34
 42
50.0
 43
0.0
 44
0.0
 50
0.0
 51
0.0
 71
0
 72
1000
 73
1
 74
3
 75
0
 76
0
 77
0
 78
0
281
0
 65
0
146
0.0
  0
ENDTAB
  0
TABLE
  2
LTYPE
  5
2
330
0
100
AcDbSymbolTable
 70
6
  0
LTYPE
  5
24
330
2
100
AcDbSymbolTableRecord
100
AcDbLinetypeTableRecord
  2
ByBlock
 70
0
  3

 72
65
 73
0
 40
0.0
  0
LTYPE
  5
25
330
2
100
AcDbSymbolTableRecord
100
AcDbLinetypeTableRecord
  2
ByLayer
 70
0
  3

 72
65
 73
0
 40
0.0
  0
LTYPE
  5
26
330
2
100
AcDbSymbolTableRecord
100
AcDbLinetypeTableRecord
  2
Continuous
 70
0
  3

 72
65
 73
0
 40
0.0
  0
LTYPE
  5
30
330
2
100
AcDbSymbolTableRecord
100
AcDbLinetypeTableRecord
  2
DASHED
 70
0
  3
Штриховая __ __ __ __
 72
65
 73
2
 40
10.0
 49
5.0
 74
0
 49
-2.5
 74
0
  0
LTYPE
  5
31
330
2
100
AcDbSymbolTableRecord
100
AcDbLinetypeTableRecord
  2
DASHDOT
 70
0
  3
Штрихпунктирная __.__.__.__
 72
65
 73
4
 40
12.0
 49
5.0
 74
0
 49
-2.5
 74
0
 49
0.0
 74
0
 49
-2.5
 74
0
  0
LTYPE
  5
32
330
2
100
AcDbSymbolTableRecord
100
AcDbLinetypeTableRecord
  2
DASHDOT2
 70
0
  3
Штрихпунктирная с двумя точками __..__..__..
 72
65
 73
6
 40
14.0
 49
5.0
 74
0
 49
-2.5
 74
0
 49
0.0
 74
0
 49
-2.5
 74
0
 49
0.0
 74
0
 49
-2.5
 74
0
  0
ENDTAB
  0
TABLE
  2
LAYER
  5
1
330
0
100
AcDbSymbolTable
 70
3
  0
LAYER
  5
27
330
1
100
AcDbSymbolTableRecord
100
AcDbLayerTableRecord
  2
0
 70
0
 62
7
  6
Continuous
370
-3
390
13
347
21
  0
LAYER
  5
28
330
1
100
AcDbSymbolTableRecord
100
AcDbLayerTableRecord
  2
Defpoints
 70
0
 62
7
  6
Continuous
290
0
370
-3
390
13
347
21
  0
LAYER
  5
33
330
1
100
AcDbSymbolTableRecord
100
AcDbLayerTableRecord
  2
tmp-broken
 70
0
 62
250
420
0
  6
Continuous
370
40
390
13
347
21
  0
ENDTAB
  0
TABLE
  2
STYLE
  5
5
330
0
100
AcDbSymbolTable
 70
1
  0
STYLE
  5
29
330
5
100
AcDbSymbolTableRecord
100
AcDbTextStyleTableRecord
  2
Standard
 70
0
 40
0.0
 41
1.0
 50
0.0
 71
0
 42
2.5
  3
txt
  4

  0
ENDTAB
  0
TABLE
  2
VIEW
  5
7
330
0
100
AcDbSymbolTable
 70
0
  0
ENDTAB
  0
TABLE
  2
UCS
  5
6
330
0
100
AcDbSymbolTable
 70
0
  0
ENDTAB
  0
TABLE
  2
APPID
  5
3
330
0
100
AcDbSymbolTable
 70
4
  0
APPID
  5
2A
330
3
100
AcDbSymbolTableRecord
100
AcDbRegAppTableRecord
  2
ACAD
 70
0
  0
APPID
  5
2F
330
3
100
AcDbSymbolTableRecord
100
AcDbRegAppTableRecord
  2
GEO_MODELER
 70
0
  0
APPID
  5
3B
330
3
100
AcDbSymbolTableRecord
100
AcDbRegAppTableRecord
  2
HATCHBACKGROUNDCOLOR
 70
0
  0
APPID
  5
3C
330
3
100
AcDbSymbolTableRecord
100
AcDbRegAppTableRecord
  2
EZDXF
 70
0
  0
ENDTAB
  0
TABLE
  2
DIMSTYLE
  5
4
330
0
100
AcDbSymbolTable
 70
1
100
AcDbDimStyleTable
  0
DIMSTYLE
105
2B
330
4
100
AcDbSymbolTableRecord
100
AcDbDimStyleTableRecord
  2
Standard
 70
0
 40
1.0
 41
2.5
 42
0.625
 43
3.75
 44
1.25
 45
0.0
 46
0.0
 47
0.0
 48
0.0
 49
2.5
140
2.5
141
2.5
142
0.0
143
0.03937007874
144
1.0
145
0.0
146
1.0
147
0.625
148
0.0
 69
0
 70
0
 71
0
 72
0
 73
0
 74
0
 75
0
 76
0
 77
1
 78
8
 79
3
170
0
171
3
172
1
173
0
174
0
175
0
176
0
177
0
178
0
179
2
271
2
272
2
273
2
274
3
275
0
276
0
277
2
278
44
279
0
280
0
281
0
282
0
283
0
284
8
285
0
286
0
288
0
289
3
290
0
371
-2
372
-2
  0
ENDTAB
  0
TABLE
  2
BLOCK_RECORD
  5
9
330
0
100
AcDbSymbolTable
 70
2
  0
BLOCK_RECORD
  5
17
330
9
100
AcDbSymbolTableRecord
100
AcDbBlockTableRecord
  2
*Model_Space
340
1A
 70
0
280
1
281
0
  0
BLOCK_RECORD
  5
1B
330
9
100
AcDbSymbolTableRecord
100
AcDbBlockTableRecord
  2
*Paper_Space
340
1E
 70
0
280
1
281
0
  0
ENDTAB
  0
ENDSEC
  0
SECTION
  2
BLOCKS
  0
BLOCK
  5
18
330
17
100
AcDbEntity
  8
0
100
AcDbBlockBegin
  2
*Model_Space
 70
0
 10
0.0
 20
0.0
 30
0.0
  3
*Model_Space
  1

  0
ENDBLK
  5
19
330
17
100
AcDbEntity
  8
0
100
AcDbBlockEnd
  0
BLOCK
  5
1C
330
1B
100
AcDbEntity
  8
0
100
AcDbBlockBegin
  2
*Paper_Space
 70
0
 10
0.0
 20
0.0
 30
0.0
  3
*Paper_Space
  1

  0
ENDBLK
  5
1D
330
1B
100
AcDbEntity
  8
0
100
AcDbBlockEnd
  0
ENDSEC
  0
SECTION
  2
ENTITIES
  0
LWPOLYLINE
  5
34
330
17
100
AcDbEntity
  8
tmp-broken
  6
Continuous
 62
1
370
40
420
16711680
100
AcDbPolyline
 90
18
 70
0
 10
0.0
 20
0.0
 10
7.25
 20
0.0
 10
8.583333333333334
 20
1.75
 10
9.916666666666668
 20
-1.75
 10
11.25
 20
0.0
 10
17.75
 20
0.0
 10
19.083333333333332
 20
1.75
 10
20.416666666666664
 20
-1.75
 10
21.75
 20
0.0
 10
28.25
 20
0.0
 10
29.583333333333332
 20
1.75
 10
30.916666666666664
 20
-1.75
 10
32.25
 20
0.0
 10
38.75
 20
0.0
 10
40.083333333333336
 20
1.75
 10
41.41666666666667
 20
-1.75
 10
42.75
 20
0.0
 10
50.0
 20
0.0
1001
GEO_MODELER
1000
Line
1040
0.0
1040
0.0
1040
50.0
1040
0.0
1000
__STYLE_BROKEN__
1040
4.0
1040
6.5
  0
LWPOLYLINE
  5
35
330
17
100
AcDbEntity
  8
tmp-broken
  6
Continuous
 62
250
370
40
420
0
100
AcDbPolyline
 90
121
 70
1
 10
100.0
 20
0.0
 10
99.96240354618283
 20
-1.0464565232560021
 10
99.87934918116127
 20
-2.08964058731173
 10
99.74954097302746
 20
-3.1282150374949187
 10
99.56267541184432
 20
-4.158538292812577
 10
99.31226790130826
 20
-5.174985949994377
 10
99.01508790092748
 20
-6.1783834566995885
 10
98.67100129875158
 20
-7.1669380232559785
 10
98.27167273939799
 20
-8.134936706152425
 10
97.8145262212619
 20
-9.0766977285004
 10
97.3136172936366
 20
-9.995549250115188
 10
96.7696616957157
 20
-10.889778263282036
 10
96.17993443560825
 20
-11.755056546316355
 10
95.53623253845717
 20
-12.58078959283312
 10
94.8545232098744
 20
-13.37488177051545
 10
94.13602019500199
 20
-14.135883609570058
 10
93.38201641824094
 20
-14.86240354023838
 10
92.58166672388074
 20
-15.537625811155307
 10
91.74946971273336
 20
-16.17238344942129
 10
90.88825637992468
 20
-16.7669861352696
 10
89.99961821034962
 20
-17.320436420253152
 10
89.07853872301962
 20
-17.818530112669112
 10
88.13183808512413
 20
-18.265056192002746
 10
87.16527862220228
 20
-18.666200954393243
 10
86.18065644880227
 20
-19.02162242835076
 10
85.17617705056678
 20
-19.317436368058022
 10
84.15678866327134
 20
-19.555092455873105
 10
83.1277504996727
 20
-19.745298780614064
 10
82.09072099332492
 20
-19.888754554468704
 10
81.04632820897415
 20
-19.964441147737844
 10
79.99999435035507
 20
-19.98681904693255
 10
78.95368739067325
 20
-19.964068416797335
 10
77.90922692871892
 20
-19.88932156523267
 10
76.87220773606485
 20
-19.74551034297636
 10
75.84322624527057
 20
-19.554973287205073
 10
74.82393596721836
 20
-19.31701408710438
 10
73.81919554448848
 20
-19.022087941540377
 10
72.83464905787066
 20
-18.666365119082567
 10
71.86820082171513
 20
-18.264945410973002
 10
70.92164333801566
 20
-17.818171593893776
 10
70.00013440939631
 20
-17.320872847786863
 10
69.11161793732497
 20
-16.76716591456039
 10
68.25055540179915
 20
-16.17233221914167
 10
67.41853630843337
 20
-15.537369485051613
 10
65.74251581594503
 20
-15.833775965284335
 10
66.60620417121008
 20
-13.401524173967061
 10
66.92074640734457
 20
-11.777237689224684
 10
64.46395489786217
 20
-12.580629352191488
 10
63.82049023689042
 20
-11.75475466915337
 10
63.230023591573996
 20
-10.88998077432685
 10
62.686292772590534
 20
-9.99559018624581
 10
62.18563512159858
 20
-9.076606067633243
 10
61.728766006686314
 20
-8.13474419791629
 10
61.32859259417239
 20
-7.167094473934711
 10
59.77627675638861
 20
-6.5670787786365326
 10
61.58699297234866
 20
-4.931480118750736
 10
62.84693481271462
 20
-3.6430242402430073
 10
60.25003395823883
 20
-3.1282811924784655
 10
60.12056173857938
 20
-2.089639074059331
 10
60.03786956707589
 20
-1.0464352880553902
 10
60.00065305079787
 20
-1.1868193940299532e-05
 10
60.03730682437382
 20
1.0464780979726327
 10
60.12072381927587
 20
2.0896439141010057
 10
60.25086854760475
 20
3.1281520863048784
 10
59.232107300601136
 20
4.415651784665238
 10
61.47749581984455
 20
4.960626219717795
 10
63.40158069808052
 20
5.3996186942792646
 10
61.32939098672427
 20
7.166787678563452
 10
61.72787430217457
 20
8.135134618307886
 10
62.18529895568713
 20
9.076795894561627
 10
62.68645993149848
 20
9.995515845815627
 10
63.230641108629094
 20
10.889584247152422
 10
63.819628504518285
 20
11.755366318974383
 10
64.46356844127386
 20
12.580958667309831
 10
64.25825549494307
 20
14.174166761740091
 10
66.36550461330297
 20
13.639171521189366
 10
68.3696875009643
 20
12.921129342786767
 10
67.41812066665086
 20
15.53789304567549
 10
68.25049649713627
 20
16.172446413702396
 10
69.1118615768283
 20
16.766818891986986
 10
70.00062245300502
 20
17.320013303299422
 10
70.92127185198576
 20
17.81890149975337
 10
71.8681166879683
 20
18.265180611580398
 10
72.8347885000167
 20
18.666051156137623
 10
73.81948756912513
 20
19.021171949558585
 10
74.82370518433167
 20
19.31787336464382
 10
75.84319294500256
 20
19.555226988061513
 10
76.87228913884701
 20
19.745103133636558
 10
77.90933040277787
 20
19.88820388737976
 10
78.95365466674554
 20
19.964830123702967
 10
80.00001693440127
 20
19.98683476059909
 10
81.04629850890235
 20
19.963712006834555
 10
82.09082550273833
 20
19.889900709916784
 10
83.1278356011841
 20
19.745734167439586
 10
84.15676227655194
 20
19.55486936203994
 10
85.1759574920048
 20
19.316612513671927
 10
86.18095336259475
 20
19.022558014468416
 10
87.16542632323237
 20
18.666537939760325
 10
88.13176709010513
 20
18.264849404080312
 10
89.0781871617561
 20
17.81783561185096
 10
90.00011095162263
 20
17.32130638402766
 10
90.88850996004597
 20
16.76734950154505
 10
91.74942821227968
 20
16.172292796986
 10
92.58127850782175
 20
15.53713390229496
 10
93.38251146479759
 20
14.862978501946538
 10
94.13643944437844
 20
14.136289194188528
 10
94.85458010630282
 20
13.374906358858613
 10
95.53587886765591
 20
12.580485534800621
 10
96.17912319824887
 20
11.754478285989501
 10
96.7702806349244
 20
10.890176467486334
 10
97.31380146092863
 20
9.995633724737644
 10
97.81422664723905
 20
9.07652573695411
 10
98.27084152927343
 20
8.134570423419222
 10
98.67179260818448
 20
7.167242670935751
 10
99.01535427314516
 20
6.178450015190914
 10
99.31195869814289
 20
5.174884322313853
 10
99.56174345189129
 20
4.158346234756186
 10
99.75036369501196
 20
3.1283427627767004
 10
99.87953104195711
 20
2.0896381103328543
 10
99.96189782974739
 20
1.0464154109712223
 10
100.0
 20
0.0
1001
GEO_MODELER
1000
Circle
1040
80.0
1040
0.0
1040
20.0
1000
__STYLE_BROKEN__
1040
4.0
1040
6.5
  0
LWPOLYLINE
  5
36
330
17
100
AcDbEntity
  8
tmp-broken
  6
Continuous
 62
250
370
40
420
0
100
AcDbPolyline
 90
121
 70
0
 10
120.0
 20
0.0
 10
120.01763244355013
 20
-0.5232816539783923
 10
120.03526488710027
 20
-1.0465633079567846
 10
120.06639559908251
 20
-1.5689337333562687
 10
120.11925305253102
 20
-2.0898374500552848
 10
120.17211050597953
 20
-2.610741166754301
 10
120.25291876027744
 20
-3.1278564297670086
 10
120.34062770541595
 20
-3.6440363726150418
 10
120.43693457392311
 20
-4.158458046884902
 10
120.55890941741369
 20
-4.667630640424028
 10
120.68088426090426
 20
-5.176803233963155
 10
120.82714576282682
 20
-5.67929860713796
 10
120.98261641006977
 20
-6.179262076105212
 10
121.14525543364903
 20
-6.676734759084494
 10
121.33329575883965
 20
-7.1653812862983
 10
121.5213360840303
 20
-7.654027813512105
 10
121.73245056753079
 20
-8.132917869756326
 10
121.95200569755494
 20
-8.608238958427957
 10
122.17939042864022
 20
-9.079630495719982
 10
122.4293011800421
 20
-9.539716584174803
 10
122.67921193144399
 20
-9.999802672629622
 10
122.95225053215162
 20
-10.446343403746488
 10
123.23127382219008
 20
-10.889379063792074
 10
123.51972395637137
 20
-11.326046975581951
 10
123.82654848391479
 20
-11.750303150261429
 10
124.1333730114582
 20
-12.174559324940907
 10
124.46371137952126
 20
-12.580640013692443
 10
125.26906392033735
 20
-12.583526734718205
 10
126.10978879817301
 20
-12.501469820008863
 10
126.24245671038533
 20
-13.063266640070793
 10
125.12042403783603
 20
-14.879575962163978
 10
124.11536776464094
 20
-16.76428974766485
 10
125.01765794477478
 20
-16.629663005331796
 10
126.35857244720091
 20
-15.976590830334835
 10
127.41935998630757
 20
-15.536288620478736
 10
127.82544067505911
 20
-15.86662698854178
 10
128.24969684973857
 20
-16.173451516085212
 10
128.67395302441804
 20
-16.480276043628646
 10
129.11062093620794
 20
-16.76872617780994
 10
129.55365659625352
 20
-17.04774946784839
 10
130.0001973273704
 20
-17.32078806855603
 10
130.46028341582522
 20
-17.570698819957897
 10
130.92036950428002
 20
-17.820609571359764
 10
131.39176104157207
 20
-18.047994302445044
 10
131.8670821302437
 20
-18.26754943246921
 10
132.3459721864879
 20
-18.478663915969708
 10
132.8346187137017
 20
-18.666704241160343
 10
133.5182916802621
 20
-18.30632527958699
 10
134.20640119662272
 20
-17.808132422863874
 10
134.64656928337516
 20
-18.090208091846915
 10
134.584602186334
 20
-20.21898817414997
 10
134.6352120727847
 20
-22.351308572311723
 10
135.3276688637769
 20
-21.972784242252068
 10
136.1644587677975
 20
-20.73191717030217
 10
136.872143570233
 20
-19.747081239722576
 10
137.3892588332457
 20
-19.827889494020468
 10
137.91016254994472
 20
-19.880746947468975
 10
138.43106626664374
 20
-19.93360440091748
 10
138.95343669204323
 20
-19.964735112899724
 10
139.4767183460216
 20
-19.982367556449862
 10
140.0
 20
-20.0
 10
140.5232816539784
 20
-19.982367556449862
 10
141.04656330795677
 20
-19.964735112899724
 10
141.56893373335626
 20
-19.933604400917485
 10
142.08983745005528
 20
-19.880746947468978
 10
142.6107411667543
 20
-19.82788949402047
 10
143.127856429767
 20
-19.747081239722576
 10
143.54828394282129
 20
-19.12309985672499
 10
143.90152150221581
 20
-18.3582060179893
 10
144.37815991631203
 20
-18.232722076984203
 10
145.38671106496827
 20
-20.110794541098528
 10
146.5095502522814
 20
-21.93123813885185
 10
146.95058862156108
 20
-21.43588592406295
 10
147.0667876377777
 20
-19.951583139878935
 10
147.1653812862983
 20
-18.66670424116034
 10
147.6540278135121
 20
-18.478663915969705
 10
148.1329178697563
 20
-18.267549432469206
 10
148.60823895842796
 20
-18.047994302445048
 10
149.07963049571998
 20
-17.82060957135977
 10
149.5397165841748
 20
-17.5706988199579
 10
149.99980267262964
 20
-17.32078806855603
 10
150.44634340374648
 20
-17.047749467848387
 10
150.8893790637921
 20
-16.768726177809935
 10
151.32604697558196
 20
-16.480276043628642
 10
151.75030315026143
 20
-16.173451516085215
 10
152.1745593249409
 20
-15.866626988541782
 10
152.58064001369246
 20
-15.53628862047874
 10
152.65598335293575
 20
-14.816252140637141
 10
152.57660518552302
 20
-13.97317787364632
 10
152.8334916619668
 20
-13.512670699293082
 10
154.64213215191242
 20
-14.642132151912438
 10
156.5194171573431
 20
-15.654857257255204
 10
156.79559634897035
 20
-15.132612786253665
 10
156.14722295228378
 20
-13.78634078923421
 10
155.53628862047876
 20
-12.580640013692449
 10
155.86662698854178
 20
-12.174559324940903
 10
156.1734515160852
 20
-11.750303150261425
 10
156.48027604362863
 20
-11.326046975581946
 10
156.76872617780992
 20
-10.889379063792076
 10
157.04774946784838
 20
-10.44634340374649
 10
157.32078806855603
 20
-9.99980267262963
 10
157.5706988199579
 20
-9.5397165841748
 10
157.82060957135977
 20
-9.07963049571997
 10
158.04799430244503
 20
-8.608238958427949
 10
158.2675494324692
 20
-8.132917869756314
 10
158.4786639159697
 20
-7.654027813512093
 10
158.66670424116035
 20
-7.165381286298294
 10
158.85474456635097
 20
-6.676734759084489
 10
159.01738358993023
 20
-6.179262076105206
 10
159.17285423717317
 20
-5.679298607137959
 10
159.31911573909574
 20
-5.176803233963152
 10
159.4410905825863
 20
-4.667630640424031
 10
159.5630654260769
 20
-4.158458046884903
 10
159.65937229458405
 20
-3.64403637261504
 10
159.74708123972258
 20
-3.1278564297670117
 10
159.82788949402047
 20
-2.6107411667543015
 10
159.88074694746896
 20
-2.08983745005529
 10
159.9336044009175
 20
-1.568933733356271
 10
159.96473511289975
 20
-1.0465633079567849
 10
159.98236755644987
 20
-0.5232816539783979
 10
160.0
 20
-3.678955472263822e-15
1001
GEO_MODELER
1000
Arc
1040
140.0
1040
0.0
1040
20.0
1040
20.0
1040
180.0
1040
0.0
1040
0.0
1000
__STYLE_BROKEN__
1040
4.0
1040
6.5
  0
LWPOLYLINE
  5
37
330
17
100
AcDbEntity
  8
tmp-broken
  6
Continuous
 62
250
370
40
420
0
100
AcDbPolyline
 90
121
 70
1
 10
225.0
 20
0.0
 10
224.936424448081
 20
-1.061657338294934
 10
224.7514837958406
 20
-2.108785159240843
 10
224.45044383965146
 20
-3.128459449237784
 10
224.04265537309172
 20
-4.110184978440441
 10
223.53988629296302
 20
-5.046667865376405
 10
222.95467090494856
 20
-5.933805008068694
 10
222.29906550936832
 20
-6.770152104305899
 10
221.58392073617017
 20
-7.5561957396621615
 10
220.81858802851224
 20
-8.293664825456679
 10
220.01091000890042
 20
-8.984991114799119
 10
219.16532623600426
 20
-9.630085090722005
 10
218.281574510524
 20
-10.221617602643088
 10
217.37328518833414
 20
-10.774091705012456
 10
216.4438894236207
 20
-11.290395323966468
 10
215.49495225810128
 20
-11.770683165425389
 10
214.52264362538207
 20
-12.20152071619334
 10
213.53803273822788
 20
-12.60271199858389
 10
212.5424045838531
 20
-12.976452645276163
 10
211.5307461922809
 20
-13.304637735612108
 10
210.51064171668972
 20
-13.604509650692414
 10
209.48391757961707
 20
-13.881780043187119
 10
208.44597794153842
 20
-14.113813365066692
 10
207.40350677298395
 20
-14.323187645508556
 10
206.35616069801105
 20
-14.50818589954394
 10
205.3025265934618
 20
-14.652320639512611
 10
204.24680494414557
 20
-14.779660166150135
 10
203.18724864352342
 20
-14.87184802093147
 10
202.12598087267438
 20
-14.937778012199031
 10
201.06342256292393
 20
-14.98390818819676
 10
199.99999399859848
 20
-14.990112160729158
 10
198.93657864668404
 20
-14.983602535984913
 10
197.8740019330977
 20
-14.937898241861168
 10
196.81275431307392
 20
-14.871675555465984
 10
195.75316094225792
 20
-14.779914761658858
 10
194.69746462514283
 20
-14.65229552096367
 10
193.64387909160936
 20
-14.507891312504338
 10
192.5964566260322
 20
-14.323326057481891
 10
191.55403593146957
 20
-14.113695969738778
 10
190.51599845550479
 20
-13.882100733928707
 10
189.48932390615383
 20
-13.604589719006075
 10
188.46929013176293
 20
-13.304485974793106
 10
187.45748486379955
 20
-12.976753989050392
 10
186.4619208666824
 20
-12.602799295603102
 10
185.1007509444597
 20
-13.086748775638164
 10
184.53695944075764
 20
-11.703356788095702
 10
184.95790865651895
 20
-8.647267441367013
 10
182.72738429394883
 20
-10.601044031546651
 10
181.71851620800226
 20
-10.22145651001137
 10
180.83489113388796
 20
-9.629776827924427
 10
179.98890448510227
 20
-8.985211280572067
 10
179.1813039629873
 20
-8.29376547555294
 10
178.4160587347531
 20
-7.5561943864609376
 10
177.70100904216912
 20
-6.770069437762076
 10
176.12018658066785
 20
-6.599705496163083
 10
176.98259277557966
 20
-4.7350037540846035
 10
178.3392180541419
 20
-2.979726732556479
 10
175.54999696948647
 20
-3.1283049448978923
 10
175.24902217978394
 20
-2.1086723191451395
 10
175.06413541260918
 20
-1.061601957041757
 10
175.00060564640833
 20
-1.4387248320561416e-05
 10
175.06300431785493
 20
1.061712771940415
 10
175.24799915697065
 20
2.1088994243380714
 10
175.5491048444129
 20
3.1286166227158514
 10
174.76629521080127
 20
4.675669771324342
 10
177.44045997942126
 20
4.461681968145646
 10
178.8955140480067
 20
4.6015001121490675
 10
177.7008530274863
 20
6.770240379958508
 10
178.4160937935606
 20
7.556202965087856
 10
179.18151481913043
 20
8.293570190179818
 10
179.98927108966285
 20
8.984777023790862
 10
180.83445138223902
 20
9.63039953563359
 10
181.71833051466973
 20
10.22178490577425
 10
182.57641560143801
 20
10.86063991454813
 10
182.85482077279968
 20
12.611645991615351
 10
185.22321723542936
 20
10.256917135753843
 10
186.22986178835464
 20
10.430637958946907
 10
186.4620113367452
 20
12.60263093341948
 10
187.4577040988108
 20
12.976157523975111
 10
188.46921536202944
 20
13.304795804063012
 10
189.48939097784745
 20
13.604435888620738
 10
190.51616511051157
 20
13.881465683896655
 10
191.5540067043856
 20
14.113937146193164
 10
192.59652875029383
 20
14.323055657838495
 10
193.6437982429526
 20
14.508486951053749
 10
194.69748131946844
 20
14.652352276032797
 10
195.75322869590258
 20
14.77941216940216
 10
196.81274775150524
 20
14.872027101093042
 10
197.87403607531857
 20
14.937664492414235
 10
198.93657580993928
 20
14.984220556567193
 10
200.00001799853575
 20
14.990121206124153
 10
201.06342043655033
 20
14.983300880058279
 10
202.126015828114
 20
14.938032915834444
 10
203.18724306433887
 20
14.87150616726814
 10
204.2468751528525
 20
14.78019356271923
 10
205.3025454562274
 20
14.652280300763822
 10
206.35607820518425
 20
14.507579432522043
 10
207.40358443703389
 20
14.323490190594512
 10
208.44594972699852
 20
14.113576210908308
 10
209.4840969670148
 20
13.882473500401018
 10
210.51071709835716
 20
13.604694263042983
 10
211.53066927865942
 20
13.30432068095835
 10
212.54264670952674
 20
12.977120689863478
 10
213.53813716673702
 20
12.60291727154994
 10
214.5225620470061
 20
12.201272149230709
 10
215.49463100869662
 20
11.769990225638121
 10
216.44412256555674
 20
11.290799305222631
 10
217.3733247922704
 20
10.774107067224923
 10
218.2813719402619
 20
10.2212626886614
 10
219.1648286389994
 20
9.629384714534101
 10
220.01134783220743
 20
8.985518726701462
 10
220.81885016044507
 20
8.293917753852254
 10
221.58397992563314
 20
7.556209467964435
 10
222.29889947764602
 20
6.769970958913471
 10
222.9542658997691
 20
5.933482526574431
 10
223.53924065157338
 20
5.0462651695691765
 10
224.041781535882
 20
4.109766603715893
 10
224.44936671434098
 20
3.128087138744679
 10
224.75023394396587
 20
2.1085118419491478
 10
224.93502693974418
 20
1.0615248088964258
 10
225.0
 20
0.0
1001
GEO_MODELER
1000
Ellipse
1040
200.0
1040
0.0
1040
25.0
1040
15.0
1040
0.0
1000
__STYLE_BROKEN__
1040
4.0
1040
6.5
  0
LWPOLYLINE
  5
38
330
17
100
AcDbEntity
  8
tmp-broken
  6
Continuous
 62
250
370
40
420
0
100
AcDbPolyline
 90
121
 70
1
 10
240.0
 20
-20.0
 10
241.5
 20
-20.0
 10
243.0
 20
-20.0
 10
244.5
 20
-20.0
 10
246.0
 20
-20.0
 10
247.5
 20
-20.0
 10
249.0
 20
-20.0
 10
250.5
 20
-20.0
 10
252.0
 20
-20.0
 10
253.5
 20
-20.0
 10
255.0
 20
-20.0
 10
256.5
 20
-20.0
 10
258.0
 20
-20.0
 10
259.5
 20
-20.0
 10
261.0
 20
-20.0
 10
262.5
 20
-20.0
 10
264.0
 20
-20.0
 10
265.5
 20
-20.0
 10
267.0
 20
-20.0
 10
268.5
 20
-20.0
 10
270.0
 20
-20.0
 10
271.5
 20
-20.0
 10
273.0
 20
-20.0
 10
274.5
 20
-20.0
 10
276.0
 20
-20.0
 10
277.5
 20
-20.0
 10
279.0
 20
-20.0
 10
280.5
 20
-20.0
 10
282.0
 20
-20.0
 10
283.5
 20
-20.0
 10
285.0
 20
-20.0
 10
286.5
 20
-20.0
 10
288.0
 20
-20.0
 10
289.5
 20
-20.0
 10
290.0
 20
-19.0
 10
290.0
 20
-17.5
 10
290.0
 20
-16.0
 10
290.0
 20
-14.5
 10
290.0
 20
-13.0
 10
290.0
 20
-11.5
 10
290.0
 20
-10.0
 10
290.0
 20
-8.5
 10
290.0
 20
-7.0
 10
290.0
 20
-5.5
 10
290.0
 20
-4.0
 10
290.0
 20
-2.5
 10
290.0
 20
-1.0
 10
290.0
 20
0.5
 10
290.0
 20
2.0
 10
288.359375
 20
3.5
 10
293.28125
 20
5.0
 10
290.0
 20
6.5
 10
290.0
 20
8.0
 10
290.0
 20
9.5
 10
290.0
 20
11.0
 10
290.0
 20
12.5
 10
288.359375
 20
14.0
 10
293.28125
 20
15.5
 10
290.0
 20
17.0
 10
290.0
 20
18.5
 10
290.0
 20
20.0
 10
288.5
 20
20.0
 10
287.0
 20
20.0
 10
285.5
 20
18.359375
 10
284.0
 20
23.28125
 10
282.5
 20
20.0
 10
281.0
 20
20.0
 10
279.5
 20
20.0
 10
278.0
 20
20.0
 10
276.5
 20
20.0
 10
275.0
 20
18.359375
 10
273.5
 20
23.28125
 10
272.0
 20
20.0
 10
270.5
 20
20.0
 10
269.0
 20
20.0
 10
267.5
 20
20.0
 10
266.0
 20
20.0
 10
264.5
 20
20.0
 10
263.0
 20
20.0
 10
261.5
 20
20.0
 10
260.0
 20
20.0
 10
258.5
 20
20.0
 10
257.0
 20
20.0
 10
255.5
 20
20.0
 10
254.0
 20
20.0
 10
252.5
 20
20.0
 10
251.0
 20
20.0
 10
249.5
 20
20.0
 10
248.0
 20
20.0
 10
246.5
 20
20.0
 10
245.0
 20
20.0
 10
243.5
 20
20.0
 10
242.0
 20
20.0
 10
240.5
 20
20.0
 10
240.0
 20
19.0
 10
240.0
 20
17.5
 10
240.0
 20
16.0
 10
240.0
 20
14.5
 10
240.0
 20
13.0
 10
240.0
 20
11.5
 10
240.0
 20
10.0
 10
240.0
 20
8.5
 10
240.0
 20
7.0
 10
240.0
 20
5.5
 10
240.0
 20
4.0
 10
240.0
 20
2.5
 10
240.0
 20
1.0
 10
240.0
 20
-0.5
 10
240.0
 20
-2.0
 10
240.0
 20
-3.5
 10
240.0
 20
-5.0
 10
240.0
 20
-6.5
 10
240.0
 20
-8.0
 10
240.0
 20
-9.5
 10
240.0
 20
-11.0
 10
240.0
 20
-12.5
 10
240.0
 20
-14.0
 10
240.0
 20
-15.5
 10
240.0
 20
-17.0
 10
240.0
 20
-18.5
 10
240.0
 20
-20.0
1001
GEO_MODELER
1000
Rectangle
1040
240.0
1040
-20.0
1040
290.0
1040
20.0
1040
0.0
1000
__STYLE_BROKEN__
1040
4.0
1040
6.5
  0
LWPOLYLINE
  5
39
330
17
100
AcDbEntity
  8
tmp-broken
  6
Continuous
 62
250
370
40
420
0
100
AcDbPolyline
 90
121
 70
1
 10
340.0
 20
-20.0
 10
340.79254709691264
 20
-19.424180828645788
 10
341.5850941938253
 20
-18.84836165729158
 10
342.37764129073787
 20
-18.272542485937368
 10
343.1701883876505
 20
-17.696723314583156
 10
343.96273548456315
 20
-17.120904143228948
 10
344.75528258147574
 20
-16.545084971874736
 10
345.5478296783884
 20
-15.969265800520526
 10
346.340376775301
 20
-15.393446629166316
 10
347.13292387221367
 20
-14.817627457812105
 10
347.9254709691263
 20
-14.241808286457895
 10
348.7180180660389
 20
-13.665989115103685
 10
349.51056516295154
 20
-13.090169943749475
 10
350.3031122598642
 20
-12.514350772395264
 10
351.09565935677676
 20
-11.938531601041053
 10
351.8882064536894
 20
-11.362712429686843
 10
352.68075355060205
 20
-10.786893258332631
 10
353.4733006475147
 20
-10.211074086978421
 10
354.26584774442733
 20
-9.63525491562421
 10
355.0583948413399
 20
-9.05943574427
 10
355.85094193825256
 20
-8.483616572915789
 10
356.6434890351652
 20
-7.907797401561579
 10
357.4360361320778
 20
-7.331978230207369
 10
358.22858322899043
 20
-6.756159058853157
 10
359.0211303259031
 20
-6.180339887498949
 10
358.7184042725675
 20
-5.248644896874035
 10
358.41567821923195
 20
-4.316949906249122
 10
358.1129521658964
 20
-3.385254915624209
 10
357.8102261125608
 20
-2.453559924999296
 10
357.50750005922526
 20
-1.521864934374383
 10
357.20477400588965
 20
-0.5901699437494701
 10
356.9020479525541
 20
0.34152504687544294
 10
356.5993218992185
 20
1.273220037500356
 10
356.29659584588296
 20
2.2049150281252645
 10
355.9938697925474
 20
3.136610018750182
 10
355.69114373921184
 20
4.068305009375092
 10
355.3884176858763
 20
5.000000000000008
 10
355.0856916325407
 20
5.931694990624917
 10
354.78296557920515
 20
6.863389981249834
 10
354.4802395258696
 20
7.795084971874743
 10
354.17751347253403
 20
8.72677996249966
 10
353.87478741919847
 20
9.658474953124568
 10
353.4267107413128
 20
10.542942662973397
 10
351.901135012782
 20
11.077309708595386
 10
354.0823635699471
 20
12.816090476720513
 10
355.0221773266839
 20
14.151511124991403
 10
352.3611571525206
 20
14.316949906249135
 10
352.05843109918504
 20
15.248644896874048
 10
351.7557050458495
 20
16.18033988749895
 10
350.7760629586953
 20
16.18033988749895
 10
349.7964208715412
 20
16.18033988749895
 10
348.8167787843871
 20
16.18033988749895
 10
347.837136697233
 20
16.18033988749895
 10
346.85749461007885
 20
15.665176563227442
 10
345.87785252292474
 20
14.583170578482811
 10
344.89821043577064
 20
18.440511296652183
 10
343.9185683486165
 20
17.93533180261723
 10
342.93892626146237
 20
16.18033988749895
 10
341.95928417430827
 20
16.18033988749895
 10
340.9796420871541
 20
16.18033988749895
 10
340.0
 20
16.18033988749895
 10
339.0203579128459
 20
16.18033988749895
 10
338.04071582569173
 20
16.18033988749895
 10
337.06107373853763
 20
16.18033988749895
 10
336.0814316513835
 20
15.302843929939808
 10
335.1017895642294
 20
15.670168478345717
 10
334.12214747707526
 20
19.527509196515062
 10
333.14250538992115
 20
17.21066653604194
 10
332.16286330276705
 20
16.18033988749895
 10
331.1832212156129
 20
16.18033988749895
 10
330.2035791284588
 20
16.18033988749895
 10
329.2239370413047
 20
16.18033988749895
 10
328.2442949541505
 20
16.18033988749895
 10
327.94156890081496
 20
15.248644896874053
 10
327.6388428474794
 20
14.316949906249143
 10
328.5152638545577
 20
13.002126810940624
 10
326.48479614804717
 20
12.63180911343427
 10
323.9942640879821
 20
12.410975385932415
 10
326.13723738503694
 20
10.684624505301654
 10
326.12521258080153
 20
9.658474953124568
 10
325.82248652746597
 20
8.72677996249966
 10
325.5197604741304
 20
7.795084971874751
 10
325.21703442079485
 20
6.86338998124984
 10
324.9143083674593
 20
5.931694990624932
 10
324.6115823141237
 20
5.000000000000007
 10
324.30885626078816
 20
4.0683050093751
 10
324.0061302074526
 20
3.136610018750188
 10
323.70340415411704
 20
2.2049150281252796
 10
323.4006781007815
 20
1.2732200375003568
 10
323.0979520474459
 20
0.3415250468754465
 10
322.79522599411035
 20
-0.5901699437494621
 10
322.4924999407748
 20
-1.5218649343743706
 10
322.1897738874392
 20
-2.4535599249992934
 10
321.8870478341036
 20
-3.385254915624202
 10
321.58432178076805
 20
-4.316949906249114
 10
321.2815957274325
 20
-5.248644896874023
 10
320.9788696740969
 20
-6.180339887498935
 10
321.77141677100957
 20
-6.756159058853155
 10
322.56396386792215
 20
-7.331978230207363
 10
323.3565109648348
 20
-7.907797401561572
 10
324.14905806174744
 20
-8.48361657291578
 10
324.9416051586601
 20
-9.059435744269997
 10
325.73415225557267
 20
-9.635254915624207
 10
326.5266993524853
 20
-10.211074086978417
 10
327.31924644939795
 20
-10.786893258332626
 10
328.1117935463106
 20
-11.362712429686841
 10
328.9043406432232
 20
-11.938531601041051
 10
329.6968877401358
 20
-12.51435077239526
 10
330.48943483704846
 20
-13.09016994374947
 10
331.2819819339611
 20
-13.665989115103686
 10
332.0745290308737
 20
-14.241808286457895
 10
332.86707612778633
 20
-14.817627457812103
 10
333.659623224699
 20
-15.393446629166313
 10
334.4521703216116
 20
-15.969265800520521
 10
335.24471741852426
 20
-16.545084971874736
 10
336.03726451543685
 20
-17.120904143228948
 10
336.8298116123495
 20
-17.696723314583156
 10
337.62235870926213
 20
-18.272542485937365
 10
338.4149058061748
 20
-18.848361657291584
 10
339.20745290308736
 20
-19.42418082864579
 10
340.0
 20
-20.0
1001
GEO_MODELER
1000
Polygon
1040
340.0
1040
0.0
1040
20.0
1040
5.0
1040
-1.5707963267948966
1000
__STYLE_BROKEN__
1040
4.0
1040
6.5
  0
LWPOLYLINE
  5
3A
330
17
100
AcDbEntity
  8
tmp-broken
  6
Continuous
 62
250
370
40
420
0
100
AcDbPolyline
 90
121
 70
0
 10
380.0
 20
0.0
 10
380.57278418724974
 20
0.5944440412803874
 10
381.12792437725034
 20
1.205388683720904
 10
381.66786547487334
 20
1.8298118111187947
 10
382.19477795300094
 20
2.4652768654597454
 10
382.7105845018379
 20
3.1097985574171694
 10
383.21699136855193
 20
3.761739499677642
 10
383.71552020899753
 20
4.419730529370932
 10
384.2075384031351
 20
5.082608934894158
 10
384.69428700393865
 20
5.749370085912117
 10
385.1769061638033
 20
6.419129005503255
 10
385.65645824059965
 20
7.091089224844624
 10
386.1339489653218
 20
7.764516856404473
 10
386.6103471364609
 20
8.438718248752883
 10
387.08660334042514
 20
9.113019877210233
 10
387.5636682095748
 20
9.786749303925815
 10
388.04251073420005
 20
10.459216124280204
 10
388.5241371482679
 20
11.129691811015464
 10
389.0096109108964
 20
11.797387272330846
 10
389.5000742996552
 20
12.46142674618296
 10
389.9968203719198
 20
13.12077954054039
 10
390.50107781452726
 20
13.77440508971285
 10
391.01452255740725
 20
14.420835712588048
 10
391.53882656722607
 20
15.05848150823499
 10
392.07593236669663
 20
15.685364590372261
 10
392.62803742651704
 20
16.29904940382955
 10
393.197621799548
 20
16.89650389594969
 10
393.78746226458964
 20
17.47391937688913
 10
394.40061803113
 20
18.02647972574922
 10
395.04191283340674
 20
18.54604454862098
 10
395.7182830097233
 20
19.01886477890801
 10
396.42888373959437
 20
19.438231514727804
 10
397.1813400369687
 20
19.77581912292058
 10
397.96995223796245
 20
20.017042038022872
 10
398.78787244102915
 20
20.118015796017797
 10
399.61007580369534
 20
20.07341541508548
 10
400.4052839085569
 20
19.860082063131806
 10
401.13059105659977
 20
19.470980460901984
 10
401.78247006784994
 20
18.96619022161424
 10
402.7685742502968
 20
18.76867385495769
 10
404.1733994543115
 20
18.813657919500905
 10
402.52347860319105
 20
16.44849443268442
 10
401.50444575795785
 20
14.806089102217035
 10
403.7340583874802
 20
15.360195701040151
 10
404.79725213335774
 20
15.060288656428604
 10
405.21665165342
 20
14.349300882572
 10
405.62319126515763
 20
13.630853019282752
 10
406.01898033404103
 20
12.906391397325551
 10
406.4030853743106
 20
12.17566156641898
 10
406.77958820497
 20
11.441002683764896
 10
407.15012472681843
 20
10.70331394162977
 10
407.5154944687871
 20
9.963040005594616
 10
408.6385418205135
 20
9.586647345012336
 10
409.32027054373293
 20
8.992988679660652
 10
406.7347165815785
 20
6.857654605485867
 10
406.8468294804435
 20
6.005651371867188
 10
409.158554533325
 20
6.1751166246452875
 10
409.6305055201529
 20
5.484193605414141
 10
409.9778377294696
 20
4.735285664403782
 10
410.3255582042441
 20
3.9865579257216277
 10
410.6741676130166
 20
3.2382442637997437
 10
411.0238536515597
 20
2.4904329835219277
 10
411.37641286311333
 20
1.743971484122318
 10
411.73189222532375
 20
0.9988999806004797
 10
412.1519801808703
 20
0.2852063659573566
 10
413.4857577280627
 20
0.0251575677430923
 10
413.085284671364
 20
-1.0916215012105919
 10
410.57227309359155
 20
-3.317186471256326
 10
412.084267478091
 20
-3.485686805413935
 10
413.97307804184345
 20
-3.4175450446737736
 10
414.37756734164407
 20
-4.137180574792608
 10
414.7944848311276
 20
-4.849645619480137
 10
415.2263853020215
 20
-5.553089708952592
 10
415.67659501554664
 20
-6.2449231310408635
 10
416.14945939784957
 20
-6.921431568148634
 10
416.65064812187234
 20
-7.577151812649841
 10
417.187474956193
 20
-8.20385489623605
 10
418.0199965200442
 20
-8.513193626278474
 10
419.23976585987276
 20
-8.118782367858822
 10
418.86429054374344
 20
-10.29555580097266
 10
419.3370291043617
 20
-13.181927744841518
 10
420.7877705127557
 20
-11.096170074363744
 10
421.5347361520353
 20
-9.878456309421674
 10
422.30775332049006
 20
-9.591679804105603
 10
423.036749575726
 20
-9.206072135323865
 10
423.7153208883596
 20
-8.736645252069476
 10
424.3551530535896
 20
-8.215539495543833
 10
424.96056729915546
 20
-7.654583871527478
 10
425.53461855425843
 20
-7.061436669927305
 10
426.0826308828659
 20
-6.444111149550093
 10
426.60969514587504
 20
-5.808804004698359
 10
427.1187871642887
 20
-5.158993182620512
 10
427.61246054994837
 20
-4.4973779452317135
 10
428.0928972948014
 20
-3.8260754858617396
 10
428.56196116850793
 20
-3.146765572813705
 10
429.02124791221576
 20
-2.460797054851711
 10
429.4716242301892
 20
-1.768941622014832
 10
429.9144808769211
 20
-1.0722527494826553
 10
430.3513508676326
 20
-0.37179765382498187
 10
430.7831894448202
 20
0.3317706344267332
 10
431.21084182272193
 20
1.0378932224666064
 10
431.63506558346717
 20
1.746083375687387
 10
432.0565497706265
 20
2.4559092945726335
 10
432.47584088055373
 20
3.167033568432843
 10
432.89365093876614
 20
3.8790288931983548
 10
433.310903882623
 20
4.5913509051396035
 10
433.7281684389152
 20
5.30366616205834
 10
434.1460124658118
 20
6.015641341312855
 10
434.5650153445353
 20
6.72693487707959
 10
434.985887854726
 20
7.437124357361469
 10
435.40984575939933
 20
8.14547597579679
 10
435.83722565415616
 20
8.851765681493443
 10
436.26877120988917
 20
9.55551434877429
 10
436.7053099538126
 20
10.25617298369794
 10
437.1477747112626
 20
10.9531017575577
 10
437.59722893456524
 20
11.645542884283486
 10
438.05489680673577
 20
12.33258500563882
 10
438.5221990260731
 20
13.013115834225076
 10
439.0007950440516
 20
13.685758511295395
 10
439.492854375734
 20
14.348616250061022
 10
440.0
 20
15.0
1001
GEO_MODELER
1000
Spline
1040
380.0
1040
0.0
1040
400.0
1040
20.0
1040
420.0
1040
-10.0
1040
440.0
1040
15.0
1000
__STYLE_BROKEN__
1040
4.0
1040
6.5
  0
ENDSEC
  0
SECTION
  2
OBJECTS
  0
DICTIONARY
  5
A
330
0
100
AcDbDictionary
281
1
  3
ACAD_COLOR
350
B
  3
ACAD_GROUP
350
C
  3
ACAD_LAYOUT
350
D
  3
ACAD_MATERIAL
350
E
  3
ACAD_MLEADERSTYLE
350
F
  3
ACAD_MLINESTYLE
350
10
  3
ACAD_PLOTSETTINGS
350
11
  3
ACAD_PLOTSTYLENAME
350
12
  3
ACAD_SCALELIST
350
14
  3
ACAD_TABLESTYLE
350
15
  3
ACAD_VISUALSTYLE
350
16
  3
EZDXF_META
350
2D
  0
DICTIONARY
  5
B
330
A
100
AcDbDictionary
281
1
  0
DICTIONARY
  5
C
330
A
100
AcDbDictionary
281
1
  0
DICTIONARY
  5
D
330
A
100
AcDbDictionary
281
1
  3
Model
350
1A
  3
Layout1
350
1E
  0
DICTIONARY
  5
E
330
A
100
AcDbDictionary
281
1
  3
ByBlock
350
1F
  3
ByLayer
350
20
  3
Global
350
21
  0
DICTIONARY
  5
F
330
A
100
AcDbDictionary
281
1
  3
Standard
350
2C
  0
DICTIONARY
  5
10
330
A
100
AcDbDictionary
281
1
  3
Standard
350
22
  0
DICTIONARY
  5
11
330
A
100
AcDbDictionary
281
1
  0
ACDBDICTIONARYWDFLT
  5
12
330
A
100
AcDbDictionary
281
1
  3
Normal
350
13
100
AcDbDictionaryWithDefault
340
13
  0
ACDBPLACEHOLDER
  5
13
330
12
  0
DICTIONARY
  5
14
330
A
100
AcDbDictionary
281
1
  0
DICTIONARY
  5
15
330
A
100
AcDbDictionary
281
1
  0
DICTIONARY
  5
16
330
A
100
AcDbDictionary
281
1
  0
LAYOUT
  5
1A
330
D
100
AcDbPlotSettings
  1

  4
A3
  6

 40
7.5
 41
20.0
 42
7.5
 43
20.0
 44
420.0
 45
297.0
 46
0.0
 47
0.0
 48
0.0
 49
0.0
140
0.0
141
0.0
142
1.0
143
1.0
 70
1024
 72
1
 73
0
 74
5
  7

 75
16
 76
0
 77
2
 78
300
147
1.0
148
0.0
149
0.0
100
AcDbLayout
  1
Model
 70
1
 71
0
 10
0.0
 20
0.0
 11
420.0
 21
297.0
 12
0.0
 22
0.0
 32
0.0
 14
1e+20
 24
1e+20
 34
1e+20
 15
-1e+20
 25
-1e+20
 35
-1e+20
146
0.0
 13
0.0
 23
0.0
 33
0.0
 16
1.0
 26
0.0
 36
0.0
 17
0.0
 27
1.0
 37
0.0
 76
1
330
17
  0
LAYOUT
  5
1E
330
D
100
AcDbPlotSettings
  1

  4
A3
  6

 40
7.5
 41
20.0
 42
7.5
 43
20.0
 44
420.0
 45
297.0
 46
0.0
 47
0.0
 48
0.0
 49
0.0
140
0.0
141
0.0
142
1.0
143
1.0
 70
0
 72
1
 73
0
 74
5
  7

 75
16
 76
0
 77
2
 78
300
147
1.0
148
0.0
149
0.0
100
AcDbLayout
  1
Layout1
 70
1
 71
1
 10
0.0
 20
0.0
 11
420.0
 21
297.0
 12
0.0
 22
0.0
 32
0.0
 14
1e+20
 24
1e+20
 34
1e+20
 15
-1e+20
 25
-1e+20
 35
-1e+20
146
0.0
 13
0.0
 23
0.0
 33
0.0
 16
1.0
 26
0.0
 36
0.0
 17
0.0
 27
1.0
 37
0.0
 76
1
330
1B
  0
MATERIAL
  5
1F
102
{ACAD_REACTORS
330
E
102
}
330
E
100
AcDbMaterial
  1
ByBlock
  2

 70
0
 40
1.0
 71
1
 41
1.0
 91
-1023410177
 42
1.0
 72
1
  3

 73
1
 74
1
 75
1
 44
0.5
 73
0
 45
1.0
 46
1.0
 77
1
  4

 78
1
 79
1
170
1
 48
1.0
171
1
  6

172
1
173
1
174
1
140
1.0
141
1.0
175
1
  7

176
1
177
1
178
1
143
1.0
179
1
  8

270
1
271
1
272
1
145
1.0
146
1.0
273
1
  9

274
1
275
1
276
1
 42
1.0
 72
1
  3

 73
1
 74
1
 75
1
 94
63
  0
MATERIAL
  5
20
102
{ACAD_REACTORS
330
E
102
}
330
E
100
AcDbMaterial
  1
ByLayer
  2

 70
0
 40
1.0
 71
1
 41
1.0
 91
-1023410177
 42
1.0
 72
1
  3

 73
1
 74
1
 75
1
 44
0.5
 73
0
 45
1.0
 46
1.0
 77
1
  4

 78
1
 79
1
170
1
 48
1.0
171
1
  6

172
1
173
1
174
1
140
1.0
141
1.0
175
1
  7

176
1
177
1
178
1
143
1.0
179
1
  8

270
1
271
1
272
1
145
1.0
146
1.0
273
1
  9

274
1
275
1
276
1
 42
1.0
 72
1
  3

 73
1
 74
1
 75
1
 94
63
  0
MATERIAL
  5
21
102
{ACAD_REACTORS
330
E
102
}
330
E
100
AcDbMaterial
  1
Global
  2

 70
0
 40
1.0
 71
1
 41
1.0
 91
-1023410177
 42
1.0
 72
1
  3

 73
1
 74
1
 75
1
 44
0.5
 73
0
 45
1.0
 46
1.0
 77
1
  4

 78
1
 79
1
170
1
 48
1.0
171
1
  6

172
1
173
1
174
1
140
1.0
141
1.0
175
1
  7

176
1
177
1
178
1
143
1.0
179
1
  8

270
1
271
1
272
1
145
1.0
146
1.0
273
1
  9

274
1
275
1
276
1
 42
1.0
 72
1
  3

 73
1
 74
1
 75
1
 94
63
  0
MLINESTYLE
  5
22
102
{ACAD_REACTORS
330
10
102
}
330
10
100
AcDbMlineStyle
  2
Standard
 70
0
  3

 62
256
 51
90.0
 52
90.0
 71
2
 49
0.5
 62
256
  6
BYLAYER
 49
-0.5
 62
256
  6
BYLAYER
  0
MLEADERSTYLE
  5
2C
102
{ACAD_REACTORS
330
F
102
}
330
F
100
AcDbMLeaderStyle
179
2
170
2
171
1
172
0
 90
2
 40
0.0
 41
0.0
173
1
 91
-1056964608
 92
-2
290
1
 42
2.0
291
1
 43
8.0
  3
Standard
 44
4.0
300

342
29
174
1
175
1
176
0
178
1
 93
-1056964608
 45
4.0
292
0
297
0
 46
4.0
 94
-1056964608
 47
1.0
 49
1.0
140
1.0
294
1
141
0.0
177
0
142
1.0
295
0
296
0
143
3.75
271
0
272
9
273
9
  0
DICTIONARY
  5
2D
330
A
100
AcDbDictionary
280
1
281
1
  3
CREATED_BY_EZDXF
350
2E
  3
WRITTEN_BY_EZDXF
350
3D
  0
DICTIONARYVAR
  5
2E
330
2D
100
DictionaryVariables
280
0
  1
1.4.3 @ 2026-03-30T18:59:35.933527+00:00
  0
DICTIONARYVAR
  5
3D
330
2D
100
DictionaryVariables
280
0
  1
1.4.3 @ 2026-03-30T18:59:35.941967+00:00
  0
ENDSEC
  0
EOF
