  0
SECTION
  2
HEADER
  9
$ACADVER
  1
AC1024
  9
$ACADMAINTVER
 70
6
  9
$DWGCODEPAGE
  3
ANSI_1252
  9
$LASTSAVEDBY
  1
ezdxf
  9
$INSBASE
 10
0.0
 20
0.0
 30
0.0
  9
$EXTMIN
 10
1e+20
 20
1e+20
 30
1e+20
  9
$EXTMAX
 10
-1e+20
 20
-1e+20
 30
-1e+20
  9
$LIMMIN
 10
0.0
 20
0.0
  9
$LIMMAX
 10
420.0
 20
297.0
  9
$ORTHOMODE
 70
0
  9
$REGENMODE
 70
1
  9
$FILLMODE
 70
1
  9
$QTEXTMODE
 70
0
  9
$MIRRTEXT
 70
1
  9
$LTSCALE
 40
1.0
  9
$ATTMODE
 70
1
  9
$TEXTSIZE
 40
2.5
  9
$TRACEWID
 40
1.0
  9
$TEXTSTYLE
  7
Standard
  9
$CLAYER
  8
0
  9
$CELTYPE
  6
ByLayer
  9
$CECOLOR
 62
256
  9
$CELTSCALE
 40
1.0
  9
$DISPSILH
 70
0
  9
$DIMSCALE
 40
1.0
  9
$DIMASZ
 40
2.5
  9
$DIMEXO
 40
0.625
  9
$DIMDLI
 40
3.75
  9
$DIMRND
 40
0.0
  9
$DIMDLE
 40
0.0
  9
$DIMEXE
 40
1.25
  9
$DIMTP
 40
0.0
  9
$DIMTM
 40
0.0
  9
$DIMTXT
 40
2.5
  9
$DIMCEN
 40
2.5
  9
$DIMTSZ
 40
0.0
  9
$DIMTOL
 70
0
  9
$DIMLIM
 70
0
  9
$DIMTIH
 70
0
  9
$DIMTOH
 70
0
  9
$DIMSE1
 70
0
  9
$DIMSE2
 70
0
  9
$DIMTAD
 70
1
  9
$DIMZIN
 70
8
  9
$DIMBLK
  1

  9
$DIMASO
 70
1
  9
$DIMSHO
 70
1
  9
$DIMPOST
  1

  9
$DIMAPOST
  1

  9
$DIMALT
 70
0
  9
$DIMALTD
 70
3
  9
$DIMALTF
 40
0.03937007874
  9
$DIMLFAC
 40
1.0
  9
$DIMTOFL
 70
1
  9
$DIMTVP
 40
0.0
  9
$DIMTIX
 70
0
  9
$DIMSOXD
 70
0
  9
$DIMSAH
 70
0
  9
$DIMBLK1
  1

  9
$DIMBLK2
  1

  9
$DIMSTYLE
  2
ISO-25
  9
$DIMCLRD
 70
0
  9
$DIMCLRE
 70
0
  9
$DIMCLRT
 70
0
  9
$DIMTFAC
 40
1.0
  9
$DIMGAP
 40
0.625
  9
$DIMJUST
 70
0
  9
$DIMSD1
 70
0
  9
$DIMSD2
 70
0
  9
$DIMTOLJ
 70
0
  9
$DIMTZIN
 70
8
  9
$DIMALTZ
 70
0
  9
$DIMALTTZ
 70
0
  9
$DIMUPT
 70
0
  9
$DIMDEC
 70
2
  9
$DIMTDEC
 70
2
  9
$DIMALTU
 70
2
  9
$DIMALTTD
 70
3
  9
$DIMTXSTY
  7
Standard
  9
$DIMAUNIT
 70
0
  9
$DIMADEC
 70
0
  9
$DIMALTRND
 40
0.0
  9
$DIMAZIN
 70
0
  9
$DIMDSEP
 70
44
  9
$DIMATFIT
 70
3
  9
$DIMFRAC
 70
0
  9
$DIMLDRBLK
  1

  9
$DIMLUNIT
 70
2
  9
$DIMLWD
 70
-2
  9
$DIMLWE
 70
-2
  9
$DIMTMOVE
 70
0
  9
$DIMFXL
 40
1.0
  9
$DIMFXLON
 70
0
  9
$DIMJOGANG
 40
0.785398163397
  9
$DIMTFILL
 70
0
  9
$DIMTFILLCLR
 70
0
  9
$DIMARCSYM
 70
0
  9
$DIMLTYPE
  6

  9
$DIMLTEX1
  6

  9
$DIMLTEX2
  6

  9
$DIMTXTDIRECTION
 70
0
  9
$LUNITS
 70
2
  9
$LUPREC
 70
4
  9
$SKETCHINC
 40
1.0
  9
$FILLETRAD
 40
10.0
  9
$AUNITS
 70
0
  9
$AUPREC
 70
2
  9
$MENU
  1
.
  9
$ELEVATION
 40
0.0
  9
$PELEVATION
 40
0.0
  9
$THICKNESS
 40
0.0
  9
$LIMCHECK
 70
0
  9
$CHAMFERA
 40
0.0
  9
$CHAMFERB
 40
0.0
  9
$CHAMFERC
 40
0.0
  9
$CHAMFERD
 40
0.0
  9
$SKPOLY
 70
0
  9
$TDCREATE
 40
2461130.920335648
  9
$TDUCREATE
 40
2458532.153996898
  9
$TDUPDATE
 40
2461130.920335648
  9
$TDUUPDATE
 40
2458532.1544311
  9
$TDINDWG
 40
0.0
  9
$TDUSRTIMER
 40
0.0
  9
$USRTIMER
 70
1
  9
$ANGBASE
 50
0.0
  9
$ANGDIR
 70
0
  9
$PDMODE
 70
0
  9
$PDSIZE
 40
0.0
  9
$PLINEWID
 40
0.0
  9
$SPLFRAME
 70
0
  9
$SPLINETYPE
 70
6
  9
$SPLINESEGS
 70
8
  9
$HANDSEED
  5
3C
  9
$SURFTAB1
 70
6
  9
$SURFTAB2
 70
6
  9
$SURFTYPE
 70
6
  9
$SURFU
 70
6
  9
$SURFV
 70
6
  9
$UCSBASE
  2

  9
$UCSNAME
  2

  9
$UCSORG
 10
0.0
 20
0.0
 30
0.0
  9
$UCSXDIR
 10
1.0
 20
0.0
 30
0.0
  9
$UCSYDIR
 10
0.0
 20
1.0
 30
0.0
  9
$UCSORTHOREF
  2

  9
$UCSORTHOVIEW
 70
0
  9
$UCSORGTOP
 10
0.0
 20
0.0
 30
0.0
  9
$UCSORGBOTTOM
 10
0.0
 20
0.0
 30
0.0
  9
$UCSORGLEFT
 10
0.0
 20
0.0
 30
0.0
  9
$UCSORGRIGHT
 10
0.0
 20
0.0
 30
0.0
  9
$UCSORGFRONT
 10
0.0
 20
0.0
 30
0.0
  9
$UCSORGBACK
 10
0.0
 20
0.0
 30
0.0
  9
$PUCSBASE
  2

  9
$PUCSNAME
  2

  9
$PUCSORG
 10
0.0
 20
0.0
 30
0.0
  9
$PUCSXDIR
 10
1.0
 20
0.0
 30
0.0
  9
$PUCSYDIR
 10
0.0
 20
1.0
 30
0.0
  9
$PUCSORTHOREF
  2

  9
$PUCSORTHOVIEW
 70
0
  9
$PUCSORGTOP
 10
0.0
 20
0.0
 30
0.0
  9
$PUCSORGBOTTOM
 10
0.0
 20
0.0
 30
0.0
  9
$PUCSORGLEFT
 10
0.0
 20
0.0
 30
0.0
  9
$PUCSORGRIGHT
 10
0.0
 20
0.0
 30
0.0
  9
$PUCSORGFRONT
 10
0.0
 20
0.0
 30
0.0
  9
$PUCSORGBACK
 10
0.0
 20
0.0
 30
0.0
  9
$USERI1
 70
0
  9
$USERI2
 70
0
  9
$USERI3
 70
0
  9
$USERI4
 70
0
  9
$USERI5
 70
0
  9
$USERR1
 40
0.0
  9
$USERR2
 40
0.0
  9
$USERR3
 40
0.0
  9
$USERR4
 40
0.0
  9
$USERR5
 40
0.0
  9
$WORLDVIEW
 70
1
  9
$SHADEDGE
 70
3
  9
$SHADEDIF
 70
70
  9
$TILEMODE
 70
1
  9
$MAXACTVP
 70
64
  9
$PINSBASE
 10
0.0
 20
0.0
 30
0.0
  9
$PLIMCHECK
 70
0
  9
$PEXTMIN
 10
1e+20
 20
1e+20
 30
1e+20
  9
$PEXTMAX
 10
-1e+20
 20
-1e+20
 30
-1e+20
  9
$PLIMMIN
 10
0.0
 20
0.0
  9
$PLIMMAX
 10
420.0
 20
297.0
  9
$UNITMODE
 70
0
  9
$VISRETAIN
 70
1
  9
$PLINEGEN
 70
0
  9
$PSLTSCALE
 70
1
  9
$TREEDEPTH
 70
3020
  9
$CMLSTYLE
  2
Standard
  9
$CMLJUST
 70
0
  9
$CMLSCALE
 40
20.0
  9
$PROXYGRAPHICS
 70
1
  9
$MEASUREMENT
 70
1
  9
$CELWEIGHT
370
-1
  9
$ENDCAPS
280
0
  9
$JOINSTYLE
280
0
  9
$LWDISPLAY
290
1
  9
$INSUNITS
 70
4
  9
$HYPERLINKBASE
  1

  9
$STYLESHEET
  1

  9
$XEDIT
290
1
  9
$CEPSNTYPE
380
0
  9
$PSTYLEMODE
290
1
  9
$FINGERPRINTGUID
  2
{2AC54B86-318B-47BB-A750-64A381325503}
  9
$VERSIONGUID
  2
{D0CDA544-8F02-4090-9088-B1FF00A89941}
  9
$EXTNAMES
290
1
  9
$PSVPSCALE
 40
0.0
  9
$OLESTARTUP
290
0
  9
$SORTENTS
280
127
  9
$INDEXCTL
280
0
  9
$HIDETEXT
280
1
  9
$XCLIPFRAME
280
1
  9
$HALOGAP
280
0
  9
$OBSCOLOR
 70
257
  9
$OBSLTYPE
280
0
  9
$INTERSECTIONDISPLAY
280
0
  9
$INTERSECTIONCOLOR
 70
257
  9
$DIMASSOC
280
2
  9
$PROJECTNAME
  1

  9
$CAMERADISPLAY
290
0
  9
$LENSLENGTH
 40
50.0
  9
$CAMERAHEIGHT
 40
0.0
  9
$STEPSPERSEC
 40
24.0
  9
$STEPSIZE
 40
100.0
  9
$3DDWFPREC
 40
2.0
  9
$PSOLWIDTH
 40
0.005
  9
$PSOLHEIGHT
 40
0.08
  9
$LOFTANG1
 40
1.570796326795
  9
$LOFTANG2
 40
1.570796326795
  9
$LOFTMAG1
 40
0.0
  9
$LOFTMAG2
 40
0.0
  9
$LOFTPARAM
 70
7
  9
$LOFTNORMALS
280
1
  9
$LATITUDE
 40
37.795
  9
$LONGITUDE
 40
-122.394
  9
$NORTHDIRECTION
 40
0.0
  9
$TIMEZONE
 70
-8000
  9
$LIGHTGLYPHDISPLAY
280
1
  9
$TILEMODELIGHTSYNCH
280
1
  9
$CMATERIAL
347
20
  9
$SOLIDHIST
280
0
  9
$SHOWHIST
280
1
  9
$DWFFRAME
280
2
  9
$DGNFRAME
280
2
  9
$REALWORLDSCALE
290
1
  9
$INTERFERECOLOR
 62
256
  9
$CSHADOW
280
0
  9
$SHADOWPLANELOCATION
 40
0.0
  0
ENDSEC
  0
SECTION
  2
CLASSES
  0
CLASS
  1
ACDBDICTIONARYWDFLT
  2
AcDbDictionaryWithDefault
  3
ObjectDBX Classes
 90
0
 91
0
280
0
281
0
  0
CLASS
  1
SUN
  2
AcDbSun
  3
SCENEOE
 90
1153
 91
0
280
0
281
0
  0
CLASS
  1
VISUALSTYLE
  2
AcDbVisualStyle
  3
ObjectDBX Classes
 90
4095
 91
0
280
0
281
0
  0
CLASS
  1
MATERIAL
  2
AcDbMaterial
  3
ObjectDBX Classes
 90
1153
 91
0
280
0
281
0
  0
CLASS
  1
SCALE
  2
AcDbScale
  3
ObjectDBX Classes
 90
1153
 91
0
280
0
281
0
  0
CLASS
  1
TABLESTYLE
  2
AcDbTableStyle
  3
ObjectDBX Classes
 90
4095
 91
0
280
0
281
0
  0
CLASS
  1
MLEADERSTYLE
  2
AcDbMLeaderStyle
  3
ACDB_MLEADERSTYLE_CLASS
 90
4095
 91
0
280
0
281
0
  0
CLASS
  1
DICTIONARYVAR
  2
AcDbDictionaryVar
  3
ObjectDBX Classes
 90
0
 91
0
280
0
281
0
  0
CLASS
  1
CELLSTYLEMAP
  2
AcDbCellStyleMap
  3
ObjectDBX Classes
 90
1152
 91
0
280
0
281
0
  0
CLASS
  1
MENTALRAYRENDERSETTINGS
  2
AcDbMentalRayRenderSettings
  3
SCENEOE
 90
1024
 91
0
280
0
281
0
  0
CLASS
  1
ACDBDETAILVIEWSTYLE
  2
AcDbDetailViewStyle
  3
ObjectDBX Classes
 90
1025
 91
0
280
0
281
0
  0
CLASS
  1
ACDBSECTIONVIEWSTYLE
  2
AcDbSectionViewStyle
  3
ObjectDBX Classes
 90
1025
 91
0
280
0
281
0
  0
CLASS
  1
RASTERVARIABLES
  2
AcDbRasterVariables
  3
ISM
 90
0
 91
0
280
0
281
0
  0
CLASS
  1
LAYOUT
  2
AcDbLayout
  3
ObjectDBX Classes
 90
0
 91
0
280
0
281
0
  0
CLASS
  1
ACDBPLACEHOLDER
  2
AcDbPlaceHolder
  3
ObjectDBX Classes
 90
0
 91
0
280
0
281
0
  0
ENDSEC
  0
SECTION
  2
TABLES
  0
TABLE
  2
VPORT
  5
8
330
0
100
AcDbSymbolTable
 70
1
  0
VPORT
  5
23
330
8
100
AcDbSymbolTableRecord
100
AcDbViewportTableRecord
  2
*Active
 70
0
 10
0.0
 20
0.0
 11
1.0
 21
1.0
 12
0.0
 22
0.0
 13
0.0
 23
0.0
 14
0.5
 24
0.5
 15
0.5
 25
0.5
 16
0.0
 26
0.0
 36
1.0
 17
0.0
 27
0.0
 37
0.0
 40
1000.0
 41
1.34
 42
50.0
 43
0.0
 44
0.0
 50
0.0
 51
0.0
 71
0
 72
1000
 73
1
 74
3
 75
0
 76
0
 77
0
 78
0
281
0
 65
0
146
0.0
  0
ENDTAB
  0
TABLE
  2
LTYPE
  5
2
330
0
100
AcDbSymbolTable
 70
6
  0
LTYPE
  5
24
330
2
100
AcDbSymbolTableRecord
100
AcDbLinetypeTableRecord
  2
ByBlock
 70
0
  3

 72
65
 73
0
 40
0.0
  0
LTYPE
  5
25
330
2
100
AcDbSymbolTableRecord
100
AcDbLinetypeTableRecord
  2
ByLayer
 70
0
  3

 72
65
 73
0
 40
0.0
  0
LTYPE
  5
26
330
2
100
AcDbSymbolTableRecord
100
AcDbLinetypeTableRecord
  2
Continuous
 70
0
  3

 72
65
 73
0
 40
0.0
  0
LTYPE
  5
30
330
2
100
AcDbSymbolTableRecord
100
AcDbLinetypeTableRecord
  2
DASHED
 70
0
  3
Штриховая __ __ __ __
 72
65
 73
2
 40
10.0
 49
5.0
 74
0
 49
-2.5
 74
0
  0
LTYPE
  5
31
330
2
100
AcDbSymbolTableRecord
100
AcDbLinetypeTableRecord
  2
DASHDOT
 70
0
  3
Штрихпунктирная __.__.__.__
 72
65
 73
4
 40
12.0
 49
5.0
 74
0
 49
-2.5
 74
0
 49
0.0
 74
0
 49
-2.5
 74
0
  0
LTYPE
  5
32
330
2
100
AcDbSymbolTableRecord
100
AcDbLinetypeTableRecord
  2
DASHDOT2
 70
0
  3
Штрихпунктирная с двумя точками __..__..__..
 72
65
 73
6
 40
14.0
 49
5.0
 74
0
 49
-2.5
 74
0
 49
0.0
 74
0
 49
-2.5
 74
0
 49
0.0
 74
0
 49
-2.5
 74
0
  0
ENDTAB
  0
TABLE
  2
LAYER
  5
1
330
0
100
AcDbSymbolTable
 70
3
  0
LAYER
  5
27
330
1
100
AcDbSymbolTableRecord
100
AcDbLayerTableRecord
  2
0
 70
0
 62
7
  6
Continuous
370
-3
390
13
347
21
  0
LAYER
  5
28
330
1
100
AcDbSymbolTableRecord
100
AcDbLayerTableRecord
  2
Defpoints
 70
0
 62
7
  6
Continuous
290
0
370
-3
390
13
347
21
  0
LAYER
  5
33
330
1
100
AcDbSymbolTableRecord
100
AcDbLayerTableRecord
  2
tmp-broken
 70
0
 62
250
420
0
  6
Continuous
370
40
390
13
347
21
  0
ENDTAB
  0
TABLE
  2
STYLE
  5
5
330
0
100
AcDbSymbolTable
 70
1
  0
STYLE
  5
29
330
5
100
AcDbSymbolTableRecord
100
AcDbTextStyleTableRecord
  2
Standard
 70
0
 40
0.0
 41
1.0
 50
0.0
 71
0
 42
2.5
  3
txt
  4

  0
ENDTAB
  0
TABLE
  2
VIEW
  5
7
330
0
100
AcDbSymbolTable
 70
0
  0
ENDTAB
  0
TABLE
  2
UCS
  5
6
330
0
100
AcDbSymbolTable
 70
0
  0
ENDTAB
  0
TABLE
  2
APPID
  5
3
330
0
100
AcDbSymbolTable
 70
4
  0
APPID
  5
2A
330
3
100
AcDbSymbolTableRecord
100
AcDbRegAppTableRecord
  2
ACAD
 70
0
  0
APPID
  5
2F
330
3
100
AcDbSymbolTableRecord
100
AcDbRegAppTableRecord
  2
GEO_MODELER
 70
0
  0
APPID
  5
39
330
3
100
AcDbSymbolTableRecord
100
AcDbRegAppTableRecord
  2
HATCHBACKGROUNDCOLOR
 70
0
  0
APPID
  5
3A
330
3
100
AcDbSymbolTableRecord
100
AcDbRegAppTableRecord
  2
EZDXF
 70
0
  0
ENDTAB
  0
TABLE
  2
DIMSTYLE
  5
4
330
0
100
AcDbSymbolTable
 70
1
100
AcDbDimStyleTable
  0
DIMSTYLE
105
2B
330
4
100
AcDbSymbolTableRecord
100
AcDbDimStyleTableRecord
  2
Standard
 70
0
 40
1.0
 41
2.5
 42
0.625
 43
3.75
 44
1.25
 45
0.0
 46
0.0
 47
0.0
 48
0.0
 49
2.5
140
2.5
141
2.5
142
0.0
143
0.03937007874
144
1.0
145
0.0
146
1.0
147
0.625
148
0.0
 69
0
 70
0
 71
0
 72
0
 73
0
 74
0
 75
0
 76
0
 77
1
 78
8
 79
3
170
0
171
3
172
1
173
0
174
0
175
0
176
0
177
0
178
0
179
2
271
2
272
2
273
2
274
3
275
0
276
0
277
2
278
44
279
0
280
0
281
0
282
0
283
0
284
8
285
0
286
0
288
0
289
3
290
0
371
-2
372
-2
  0
ENDTAB
  0
TABLE
  2
BLOCK_RECORD
  5
9
330
0
100
AcDbSymbolTable
 70
2
  0
BLOCK_RECORD
  5
17
330
9
100
AcDbSymbolTableRecord
100
AcDbBlockTableRecord
  2
*Model_Space
340
1A
 70
0
280
1
281
0
  0
BLOCK_RECORD
  5
1B
330
9
100
AcDbSymbolTableRecord
100
AcDbBlockTableRecord
  2
*Paper_Space
340
1E
 70
0
280
1
281
0
  0
ENDTAB
  0
ENDSEC
  0
SECTION
  2
BLOCKS
  0
BLOCK
  5
18
330
17
100
AcDbEntity
  8
0
100
AcDbBlockBegin
  2
*Model_Space
 70
0
 10
0.0
 20
0.0
 30
0.0
  3
*Model_Space
  1

  0
ENDBLK
  5
19
330
17
100
AcDbEntity
  8
0
100
AcDbBlockEnd
  0
BLOCK
  5
1C
330
1B
100
AcDbEntity
  8
0
100
AcDbBlockBegin
  2
*Paper_Space
 70
0
 10
0.0
 20
0.0
 30
0.0
  3
*Paper_Space
  1

  0
ENDBLK
  5
1D
330
1B
100
AcDbEntity
  8
0
100
AcDbBlockEnd
  0
ENDSEC
  0
SECTION
  2
ENTITIES
  0
LWPOLYLINE
  5
34
330
17
100
AcDbEntity
  8
tmp-broken
  6
Continuous
 62
1
370
40
420
16711680
100
AcDbPolyline
 90
18
 70
0
 10
0.0
 20
0.0
 10
7.25
 20
0.0
 10
8.583333333333334
 20
1.75
 10
9.916666666666668
 20
-1.75
 10
11.25
 20
0.0
 10
17.75
 20
0.0
 10
19.083333333333332
 20
1.75
 10
20.416666666666664
 20
-1.75
 10
21.75
 20
0.0
 10
28.25
 20
0.0
 10
29.583333333333332
 20
1.75
 10
30.916666666666664
 20
-1.75
 10
32.25
 20
0.0
 10
38.75
 20
0.0
 10
40.083333333333336
 20
1.75
 10
41.41666666666667
 20
-1.75
 10
42.75
 20
0.0
 10
50.0
 20
0.0
1001
GEO_MODELER
1000
Line
1040
0.0
1040
0.0
1040
50.0
1040
0.0
1000
__STYLE_BROKEN__
1040
4.0
1040
6.5
  0
LWPOLYLINE
  5
35
330
17
100
AcDbEntity
  8
tmp-broken
  6
Continuous
 62
250
370
40
420
0
100
AcDbPolyline
 90
103
 70
1
 10
100.0
 20
0.0
 10
99.95853732448202
 20
1.2871627198059086
 10
99.8343212132742
 20
2.568988518592801
 10
99.62786669960781
 20
3.840162603644111
 10
99.34002979913383
 20
5.095414347098303
 10
98.9720039606529
 20
6.329539139382154
 10
98.52531511775733
 20
7.5374199689145485
 10
98.00181536190216
 20
8.714048638605558
 10
97.40367526313848
 20
9.854546531181526
 10
96.73337487034921
 20
10.95418483723757
 10
95.99369342830295
 20
12.00840416214658
 10
95.1876978541615
 20
13.0128334305292
 10
94.31873002122082
 20
13.963308009901866
 10
93.3903929026102
 20
14.855886978357312
 10
92.40653563240167
 20
15.686869464681214
 10
91.37123754607026
 20
16.452809993154418
 10
90.28879126647782
 20
17.1505327694171
 10
89.16368490550994
 20
17.7771448481619
 10
88.00058345516345
 20
18.330048128059154
 10
86.80430944524136
 20
18.806950124180133
 10
85.57982294785407
 20
19.205873473252943
 10
84.33220101163332
 20
19.52516413233966
 10
83.06661661093017
 20
19.76349823694093
 10
81.7883171972793
 20
19.919887590092348
 10
80.50260294206105
 20
19.9936837596935
 10
79.21480476057268
 20
19.98458076708092
 10
77.93026220862737
 20
19.892616355697506
 10
76.65430134332716
 20
19.718171834598095
 10
75.39221263980521
 20
19.46197049744011
 10
74.14922905550043
 20
19.125074623514532
 10
72.93050433291582
 20
18.70888107325176
 10
71.74109163082322
 20
18.215115496464517
 10
70.58592257251502
 20
17.645825177342026
 10
69.4697867979745
 20
17.003370545862023
 10
68.39731210474707
 20
16.290415390816506
 10
67.37294525985337
 20
15.509915815030737
 10
67.37294525985337
 20
15.509915815030737
 10
65.17494591031551
 20
15.914781532836995
 10
67.97410099177102
 20
11.297245374155475
 10
64.54330107695057
 20
12.692141600305389
 10
63.751533461891
 20
11.66136077651112
 10
63.028391450918434
 20
10.581328047874779
 10
62.37692924346931
 20
9.456604946296158
 10
61.79989829842262
 20
8.291941754030848
 10
61.29973571327846
 20
7.092257440812972
 10
61.29973571327846
 20
7.092257440812972
 10
59.19483028954062
 20
6.340931581320163
 10
63.931375370122254
 20
3.748239920827658
 10
60.26348193619343
 20
3.235715487652897
 10
60.09498721653474
 20
1.946911936910485
 10
60.01056157031268
 20
0.6498855789596925
 10
60.01056157031268
 20
-0.6498855789596965
 10
60.09498721653474
 20
-1.946911936910489
 10
60.26348193619343
 20
-3.23571548765291
 10
60.26348193619343
 20
-3.23571548765291
 10
58.818631169706606
 20
-4.940861713818291
 10
64.2167678058584
 20
-4.810361889277375
 10
61.299735713278466
 20
-7.0922574408129835
 10
61.79989829842262
 20
-8.29194175403085
 10
62.37692924346932
 20
-9.456604946296162
 10
63.028391450918434
 20
-10.581328047874782
 10
63.751533461891
 20
-11.661360776511124
 10
64.54330107695058
 20
-12.692141600305398
 10
64.54330107695058
 20
-12.692141600305398
 10
64.14767858006181
 20
-14.891823447750408
 10
68.75340724230833
 20
-12.073282542152212
 10
67.37294525985338
 20
-15.509915815030746
 10
68.39731210474709
 20
-16.290415390816516
 10
69.46978679797452
 20
-17.003370545862026
 10
70.58592257251503
 20
-17.645825177342033
 10
71.74109163082323
 20
-18.215115496464524
 10
72.93050433291585
 20
-18.70888107325177
 10
74.14922905550043
 20
-19.125074623514536
 10
75.39221263980522
 20
-19.46197049744011
 10
76.65430134332718
 20
-19.718171834598095
 10
77.93026220862738
 20
-19.89261635569751
 10
79.21480476057268
 20
-19.98458076708092
 10
80.50260294206106
 20
-19.9936837596935
 10
81.78831719727933
 20
-19.919887590092348
 10
83.06661661093017
 20
-19.76349823694093
 10
84.33220101163333
 20
-19.52516413233966
 10
85.57982294785408
 20
-19.205873473252943
 10
86.80430944524137
 20
-18.80695012418013
 10
88.00058345516345
 20
-18.330048128059154
 10
89.16368490550995
 20
-17.7771448481619
 10
90.28879126647782
 20
-17.150532769417104
 10
91.37123754607026
 20
-16.452809993154418
 10
92.40653563240167
 20
-15.686869464681212
 10
93.39039290261022
 20
-14.855886978357304
 10
94.31873002122082
 20
-13.96330800990187
 10
95.18769785416148
 20
-13.0128334305292
 10
95.99369342830295
 20
-12.008404162146576
 10
96.73337487034922
 20
-10.954184837237564
 10
97.40367526313847
 20
-9.85454653118153
 10
98.00181536190216
 20
-8.714048638605558
 10
98.52531511775733
 20
-7.537419968914545
 10
98.9720039606529
 20
-6.329539139382163
 10
99.34002979913383
 20
-5.095414347098307
 10
99.62786669960781
 20
-3.840162603644112
 10
99.83432121327418
 20
-2.568988518592815
 10
99.95853732448202
 20
-1.287162719805918
 10
100.0
 20
-4.898587196589413e-15
 10
100.0
 20
0.0
1001
GEO_MODELER
1000
Circle
1040
80.0
1040
0.0
1040
20.0
1000
__STYLE_BROKEN__
1040
4.0
1040
6.5
  0
LWPOLYLINE
  5
36
330
17
100
AcDbEntity
  8
tmp-broken
  6
Continuous
 62
250
370
40
420
0
100
AcDbPolyline
 90
60
 70
0
 10
121.21254574305243
 20
-6.857956149109025
 10
121.3932084572813
 20
-7.316723276599683
 10
121.5969424428004
 20
-7.7664181195278825
 10
121.82349508206195
 20
-8.206483084087354
 10
122.07258546379815
 20
-8.636372516925693
 10
122.34390473133377
 20
-9.055553381720811
 10
122.6371164655493
 20
-9.463505920113011
 10
122.9518571020199
 20
-9.859724296173248
 10
123.28773638181276
 20
-10.243717223608378
 10
123.64433783538414
 20
-10.615008574925803
 10
124.02121929897574
 20
-10.973137971802153
 10
124.02121929897574
 20
-10.973137971802153
 10
123.5497837251424
 20
-12.795706434802343
 10
128.55938671212937
 20
-10.083116326997748
 10
127.02265976707879
 20
-12.997128586183072
 10
128.16133214957188
 20
-13.50504707112215
 10
129.369200382359
 20
-13.934029882964085
 10
130.6392045943071
 20
-14.281569659326387
 10
131.9639217355906
 20
-14.545635064366188
 10
133.33560896468802
 20
-14.72468266173864
 10
133.33560896468802
 20
-14.72468266173864
 10
134.20171747412718
 20
-16.469601776105087
 10
137.11801997907116
 20
-11.4282797893242
 10
137.76449252091965
 20
-14.734018492594934
 10
139.2425506421575
 20
-14.560977993904674
 10
140.7250359804634
 20
-14.302830009631542
 10
142.20328355470704
 20
-13.96108338937746
 10
143.6686531530725
 20
-13.537735608557098
 10
145.11257983424767
 20
-13.035261093350325
 10
145.11257983424767
 20
-13.035261093350325
 10
147.3788963134196
 20
-13.988642367308476
 10
146.00913640621974
 20
-8.87196883379982
 10
149.33237504733148
 20
-11.026492426902122
 10
150.60365675562332
 20
-10.236433712361784
 10
151.81296113211562
 20
-9.386544048625606
 10
152.95321991155637
 20
-8.481790957266252
 10
154.017768393424
 20
-7.5274626311998025
 10
155.00038439644672
 20
-6.52913702571789
 10
155.00038439644672
 20
-6.52913702571789
 10
157.5722104286132
 20
-6.033967954803954
 10
153.34936407358364
 20
-3.4845336616808287
 10
157.45182076128117
 20
-3.244530624924008
 10
157.91504483499781
 20
-2.3950240931861746
 10
158.31729307367894
 20
-1.537365832253271
 10
158.65719638098838
 20
-0.674474976803288
 10
158.93359785845416
 20
0.1907115287720469
 10
159.1455567431004
 20
1.0552489265820988
 10
159.2923516094378
 20
1.9161946680462378
 10
159.37348282491527
 20
2.770618429183187
 10
159.3886742504745
 20
3.615612084292476
 10
159.33787418041962
 20
4.448299604081709
 10
159.22125551840344
 20
5.265846844550092
 10
159.03921518893057
 20
6.065471193310814
 10
158.7923727863812
 20
6.844451040519764
 10
158.48156846615302
 20
7.600135042175464
 10
158.10786008509942
 20
8.329951144261397
 10
157.67251960099694
 20
9.031415337016096
 10
157.1770287432963
 20
9.702140109534936
 10
156.62307396989246
 20
10.339842575927301
 10
156.01254072707883
 20
10.942352245371058
1001
GEO_MODELER
1000
Arc
1040
140.0
1040
0.0
1040
20.0
1040
14.0
1040
180.0
1040
20.0
1040
0.35
1000
__STYLE_BROKEN__
1040
4.0
1040
6.5
  0
LWPOLYLINE
  5
37
330
17
100
AcDbEntity
  8
tmp-broken
  6
Continuous
 62
250
370
40
420
0
100
AcDbPolyline
 90
105
 70
1
 10
243.4116246611696
 20
11.309103886891986
 10
242.98059115853053
 20
12.082227150060255
 10
242.4579165465221
 20
12.807169376803241
 10
241.84568512667315
 20
13.481039670649697
 10
241.14633833167431
 20
14.101150797799885
 10
240.3626649895277
 20
14.665029903172217
 10
239.49779020236676
 20
15.170428371558753
 10
238.5551628842953
 20
15.615330794565644
 10
237.53854200794177
 20
15.997963007580495
 10
236.45198161457407
 20
16.31679916471713
 10
235.29981464755107
 20
16.570567823524588
 10
234.08663567357956
 20
16.758257015195984
 10
232.81728256067908
 20
16.87911828005842
 10
231.49681718591998
 20
16.93266965225144
 10
230.13050524986636
 20
16.918697581691745
 10
228.7237952782198
 20
16.837257785659947
 10
227.2822968944
 20
16.688675026613357
 10
225.8117584497064
 20
16.473541817110878
 10
224.31804410026592
 20
16.192716057014387
 10
222.80711042217874
 20
15.847317612389004
 10
221.28498265811544
 20
15.438723849744648
 10
219.7577306900881
 20
14.968564143427336
 10
218.23144483421052
 20
14.438713378063431
 10
216.71221155397194
 20
13.85128447196748
 10
215.20608918887416
 20
13.208619951328608
 10
213.7190837952206
 20
12.513282608775473
 10
212.25712519539803
 20
11.768045283571361
 10
210.826043331161
 20
10.975879804193344
 10
209.4315450152165
 20
10.139945137390088
 10
208.07919117381766
 20
9.263574790976836
 10
206.77437467111804
 20
8.350263520602386
 10
205.52229880371718
 20
7.403653393498118
 10
204.3279565511564
 20
6.427519264783725
 10
203.196110665109
 20
5.4257537242464595
 10
202.13127467666362
 20
4.402351573622679
 10
201.1376948974407
 20
3.3613938962825713
 10
200.21933348631524
 20
2.3070317828442954
 10
200.21933348631524
 20
2.3070317828442954
 10
197.95171340963623
 20
2.2558333309160794
 10
201.4932908599231
 20
-1.8287818336046726
 10
197.89034212311466
 20
-0.9973571396945573
 10
197.31150290114394
 20
-2.0692040039254582
 10
196.82429618766733
 20
-3.1326939306016213
 10
196.43068967464419
 20
-4.183531780679036
 10
196.13227302894364
 20
-5.217473513320447
 10
195.9302514721237
 20
-6.2303433263920445
 10
195.9302514721237
 20
-6.2303433263920445
 10
194.07667816305937
 20
-7.146887724385104
 10
199.31622956785048
 20
-8.051441486410267
 10
195.91974956319146
 20
-9.171857352654522
 10
196.11499243930757
 20
-10.057650392095937
 10
196.40670019578357
 20
-10.902823388218955
 10
196.79369470639296
 20
-11.703962923140118
 10
197.27441300829923
 20
-12.457833417838085
 10
197.84691361442682
 20
-13.16139019975443
 10
197.84691361442682
 20
-13.16139019975443
 10
197.3725915182671
 20
-15.142970175964221
 10
201.32009594347778
 20
-11.578349568405333
 10
200.157608797523
 20
-14.981638212418122
 10
201.07659559157622
 20
-15.452999263001951
 10
202.07200873540646
 20
-15.861949961764893
 10
203.1398280330986
 20
-16.20683867095347
 10
204.27574086048725
 20
-16.48627248131342
 10
205.4751595826422
 20
-16.699122837661484
 10
205.4751595826422
 20
-16.699122837661484
 10
206.61758238388344
 20
-18.59104165321486
 10
208.21730026772673
 20
-13.425573407071067
 10
209.51130059292365
 20
-16.928802323869782
 10
210.90807341650222
 20
-16.86482711765192
 10
212.3411026719832
 20
-16.733599008507333
 10
213.80467378092843
 20
-16.535641302795696
 10
215.29295037128202
 20
-16.27174340857159
 10
216.7999975514284
 20
-15.942957687613712
 10
218.31980557712257
 20
-15.550595258857403
 10
219.8463138169151
 20
-15.096220769965466
 10
221.3734349205028
 20
-14.58164615788695
 10
222.89507909362806
 20
-14.00892342328533
 10
224.4051783827239
 20
-13.38033644764989
 10
225.89771087246382
 20
-12.69839188572181
 10
227.3667246997218
 20
-11.965809169553639
 10
228.80636178818125
 20
-11.185509664063773
 10
230.21088120894413
 20
-10.360605017330812
 10
231.5746820739844
 20
-9.494384752084137
 10
232.89232587115208
 20
-8.590303147872849
 10
234.15855815166063
 20
-7.6519654662239
 10
235.36832948357403
 20
-6.683113573720104
 10
236.51681558773535
 20
-5.687611020329824
 10
237.59943657583992
 20
-4.669427632492396
 10
238.61187521393626
 20
-3.6326236823983473
 10
239.55009413852378
 20
-2.5813336965935614
 10
240.41035195659455
 20
-1.519749968474824
 10
241.1892181654148
 20
-0.45210584042493274
 10
241.88358683255075
 20
0.6173411777457183
 10
242.4906889815854
 20
1.6843263867314908
 10
243.0081036341351
 20
2.744594904333841
 10
243.4337674641332
 20
3.7939186329154424
 10
243.76598302588178
 20
4.828113120043731
 10
244.0034255230595
 20
5.843054245087938
 10
244.14514809169302
 20
6.834694665227248
 10
244.1905855760245
 20
7.799079955287386
 10
244.13955678221774
 20
8.73236437704383
 10
243.99226520091585
 20
9.630826215107401
 10
243.74929819576926
 20
10.490882618236462
 10
243.4116246611696
 20
11.309103886891982
 10
243.4116246611696
 20
11.309103886891986
1001
GEO_MODELER
1000
Ellipse
1040
220.0
1040
0.0
1040
26.0
1040
14.0
1040
0.45
1000
__STYLE_BROKEN__
1040
4.0
1040
6.5
  0
LWPOLYLINE
  5
38
330
17
100
AcDbEntity
  8
tmp-broken
  6
Continuous
 62
250
370
40
420
0
100
AcDbPolyline
 90
169
 70
0
 10
280.0
 20
0.0
 10
280.3
 20
0.30554062499999995
 10
280.6
 20
0.621825
 10
280.9
 20
0.9483468749999999
 10
281.2
 20
1.2846
 10
281.5
 20
1.6300781250000003
 10
281.8
 20
1.984275
 10
282.1
 20
2.346684375
 10
282.4
 20
2.7167999999999997
 10
282.7
 20
3.094115625
 10
283.0
 20
3.4781250000000004
 10
283.3
 20
3.8683218750000004
 10
283.6
 20
4.264199999999999
 10
283.9
 20
4.6652531250000004
 10
284.2
 20
5.070975
 10
284.5
 20
5.480859375
 10
284.8
 20
5.8944
 10
285.1
 20
6.311090624999999
 10
285.4
 20
6.730425
 10
285.7
 20
7.151896875000001
 10
286.0
 20
7.575000000000001
 10
286.3
 20
7.999228125
 10
286.6
 20
8.424075000000002
 10
286.9
 20
8.849034375
 10
287.2
 20
9.2736
 10
287.5
 20
9.697265625
 10
287.8
 20
10.119525000000001
 10
288.1
 20
10.539871875000001
 10
288.4
 20
10.957800000000002
 10
288.7
 20
11.372803125
 10
289.0
 20
11.784375
 10
289.3
 20
12.192009374999998
 10
289.6
 20
12.5952
 10
289.9
 20
12.993440624999998
 10
290.2
 20
13.386225000000001
 10
290.5
 20
13.773046874999999
 10
290.8
 20
14.153400000000003
 10
291.1
 20
14.526778124999998
 10
291.4
 20
14.892675000000004
 10
291.7
 20
15.250584374999999
 10
292.0
 20
15.600000000000001
 10
292.3
 20
15.940415625000004
 10
292.6
 20
16.271325
 10
292.9
 20
16.592221875000003
 10
293.2
 20
16.902600000000003
 10
293.5
 20
17.201953125
 10
293.8
 20
17.489774999999998
 10
294.1
 20
17.765559375000002
 10
294.4
 20
18.0288
 10
294.7
 20
18.278990625
 10
295.0
 20
18.515625
 10
295.3
 20
18.738196875
 10
295.6
 20
18.9462
 10
295.9
 20
19.139128125
 10
296.2
 20
19.316475000000004
 10
296.5
 20
19.477734374999997
 10
296.8
 20
19.622400000000003
 10
297.1
 20
19.749965625
 10
297.4
 20
19.859924999999997
 10
297.7
 20
19.951771875
 10
298.0
 20
20.025000000000006
 10
298.3
 20
20.079103125
 10
298.6
 20
20.113575
 10
298.9
 20
20.127909375000005
 10
299.2
 20
20.121599999999997
 10
299.5
 20
20.094140624999994
 10
299.8
 20
20.045024999999995
 10
300.1
 20
19.9730690625
 10
300.4
 20
19.869419999999998
 10
300.7
 20
19.7323134375
 10
301.0
 20
19.562812500000003
 10
301.3
 20
19.361980312500002
 10
301.6
 20
19.130879999999998
 10
301.9
 20
18.8705746875
 10
302.2
 20
18.582127500000002
 10
302.2
 20
18.582127500000002
 10
304.4522037604108
 20
18.669106958307268
 10
300.96762560877977
 20
14.552428108523262
 10
304.59862013880615
 20
15.39120370464285
 10
305.26258612134734
 20
14.273621479724007
 10
305.8942755189601
 20
13.137462331845622
 10
306.5011146578466
 20
11.987820409590316
 10
307.0888341315872
 20
10.82827528137673
 10
307.66198037770573
 20
9.661449821648972
 10
307.66198037770573
 20
9.661449821648972
 10
309.82137622775195
 20
9.205585498617845
 10
305.63471423041364
 20
5.774456659468684
 10
309.3703603774403
 20
6.0446742597356495
 10
309.91749930553743
 20
4.865420739863279
 10
310.46504329919657
 20
3.6863553587765976
 10
311.01541423452835
 20
2.508607936906269
 10
311.5711737890283
 20
1.333395553349268
 10
312.1351642540422
 20
0.1621130790389
 10
312.1351642540422
 20
0.1621130790389
 10
314.2845022909068
 20
-0.23788483620472367
 10
310.24338826954335
 20
-3.865433375173752
 10
313.96146237562704
 20
-3.3961785286269763
 10
314.6017743650896
 20
-4.527489435500337
 10
315.2774189823438
 20
-5.638009431376052
 10
315.99929752893655
 20
-6.718984378312596
 10
316.78914992886854
 20
-7.751109639533627
 10
317.6717826590869
 20
-8.704285294240243
 10
317.6717826590869
 20
-8.704285294240243
 10
319.507885760149
 20
-7.96245414229092
 10
319.70778852692837
 20
-13.48313959274995
 10
321.2834127443139
 20
-9.938548341644738
 10
321.4
 20
-9.914932499999999
 10
321.7
 20
-9.8320134375
 10
322.0
 20
-9.727500000000004
 10
322.3
 20
-9.601949062500003
 10
322.6
 20
-9.4559175
 10
322.9
 20
-9.2899621875
 10
323.2
 20
-9.104639999999998
 10
323.5
 20
-8.900507812500004
 10
323.8
 20
-8.6781225
 10
324.1
 20
-8.438040937499999
 10
324.4
 20
-8.180820000000004
 10
324.7
 20
-7.907016562500003
 10
325.0
 20
-7.6171875
 10
325.3
 20
-7.311889687499996
 10
325.6
 20
-6.991679999999995
 10
325.9
 20
-6.657115312500002
 10
326.2
 20
-6.308752499999999
 10
326.5
 20
-5.947148437499995
 10
326.8
 20
-5.572860000000004
 10
327.1
 20
-5.1864440625
 10
327.4
 20
-4.788457499999998
 10
327.7
 20
-4.379457187499994
 10
328.0
 20
-3.9599999999999898
 10
328.3
 20
-3.530642812499999
 10
328.6
 20
-3.0919424999999956
 10
328.9
 20
-2.6444559375000036
 10
329.2
 20
-2.1887400000000015
 10
329.5
 20
-1.7253515625000122
 10
329.8
 20
-1.254847500000007
 10
330.1
 20
-0.7777846875000023
 10
330.4
 20
-0.2947199999999994
 10
330.7
 20
0.19378968750000602
 10
331.0
 20
0.6871874999999923
 10
331.3
 20
1.1849165624999989
 10
331.6
 20
1.6864200000000054
 10
331.9
 20
2.191140937499992
 10
332.2
 20
2.698522499999995
 10
332.5
 20
3.2080078125
 10
332.8
 20
3.719040000000005
 10
333.1
 20
4.231062187500005
 10
333.4
 20
4.743517499999998
 10
333.7
 20
5.255849062500001
 10
334.0
 20
5.767500000000007
 10
334.3
 20
6.277913437499993
 10
334.6
 20
6.786532499999998
 10
334.9
 20
7.292800312500006
 10
335.2
 20
7.796160000000006
 10
335.5
 20
8.296054687500009
 10
335.8
 20
8.7919275
 10
336.1
 20
9.283221562500009
 10
336.4
 20
9.769379999999991
 10
336.7
 20
10.249845937500002
 10
337.0
 20
10.724062499999981
 10
337.3
 20
11.191472812499992
 10
337.6
 20
11.651519999999998
 10
337.9
 20
12.103647187500002
 10
338.2
 20
12.54729750000001
 10
338.5
 20
12.981914062499996
 10
338.8
 20
13.406940000000002
 10
339.1
 20
13.8218184375
 10
339.4
 20
14.2259925
 10
339.7
 20
14.618905312499997
 10
340.0
 20
15.0
1001
GEO_MODELER
1000
Spline
1040
280.0
1040
0.0
1040
300.0
1040
20.0
1040
320.0
1040
-10.0
1040
340.0
1040
15.0
1000
__STYLE_BROKEN__
1040
4.0
1040
6.5
  0
ENDSEC
  0
SECTION
  2
OBJECTS
  0
DICTIONARY
  5
A
330
0
100
AcDbDictionary
281
1
  3
ACAD_COLOR
350
B
  3
ACAD_GROUP
350
C
  3
ACAD_LAYOUT
350
D
  3
ACAD_MATERIAL
350
E
  3
ACAD_MLEADERSTYLE
350
F
  3
ACAD_MLINESTYLE
350
10
  3
ACAD_PLOTSETTINGS
350
11
  3
ACAD_PLOTSTYLENAME
350
12
  3
ACAD_SCALELIST
350
14
  3
ACAD_TABLESTYLE
350
15
  3
ACAD_VISUALSTYLE
350
16
  3
EZDXF_META
350
2D
  0
DICTIONARY
  5
B
330
A
100
AcDbDictionary
281
1
  0
DICTIONARY
  5
C
330
A
100
AcDbDictionary
281
1
  0
DICTIONARY
  5
D
330
A
100
AcDbDictionary
281
1
  3
Model
350
1A
  3
Layout1
350
1E
  0
DICTIONARY
  5
E
330
A
100
AcDbDictionary
281
1
  3
ByBlock
350
1F
  3
ByLayer
350
20
  3
Global
350
21
  0
DICTIONARY
  5
F
330
A
100
AcDbDictionary
281
1
  3
Standard
350
2C
  0
DICTIONARY
  5
10
330
A
100
AcDbDictionary
281
1
  3
Standard
350
22
  0
DICTIONARY
  5
11
330
A
100
AcDbDictionary
281
1
  0
ACDBDICTIONARYWDFLT
  5
12
330
A
100
AcDbDictionary
281
1
  3
Normal
350
13
100
AcDbDictionaryWithDefault
340
13
  0
ACDBPLACEHOLDER
  5
13
330
12
  0
DICTIONARY
  5
14
330
A
100
AcDbDictionary
281
1
  0
DICTIONARY
  5
15
330
A
100
AcDbDictionary
281
1
  0
DICTIONARY
  5
16
330
A
100
AcDbDictionary
281
1
  0
LAYOUT
  5
1A
330
D
100
AcDbPlotSettings
  1

  4
A3
  6

 40
7.5
 41
20.0
 42
7.5
 43
20.0
 44
420.0
 45
297.0
 46
0.0
 47
0.0
 48
0.0
 49
0.0
140
0.0
141
0.0
142
1.0
143
1.0
 70
1024
 72
1
 73
0
 74
5
  7

 75
16
 76
0
 77
2
 78
300
147
1.0
148
0.0
149
0.0
100
AcDbLayout
  1
Model
 70
1
 71
0
 10
0.0
 20
0.0
 11
420.0
 21
297.0
 12
0.0
 22
0.0
 32
0.0
 14
1e+20
 24
1e+20
 34
1e+20
 15
-1e+20
 25
-1e+20
 35
-1e+20
146
0.0
 13
0.0
 23
0.0
 33
0.0
 16
1.0
 26
0.0
 36
0.0
 17
0.0
 27
1.0
 37
0.0
 76
1
330
17
  0
LAYOUT
  5
1E
330
D
100
AcDbPlotSettings
  1

  4
A3
  6

 40
7.5
 41
20.0
 42
7.5
 43
20.0
 44
420.0
 45
297.0
 46
0.0
 47
0.0
 48
0.0
 49
0.0
140
0.0
141
0.0
142
1.0
143
1.0
 70
0
 72
1
 73
0
 74
5
  7

 75
16
 76
0
 77
2
 78
300
147
1.0
148
0.0
149
0.0
100
AcDbLayout
  1
Layout1
 70
1
 71
1
 10
0.0
 20
0.0
 11
420.0
 21
297.0
 12
0.0
 22
0.0
 32
0.0
 14
1e+20
 24
1e+20
 34
1e+20
 15
-1e+20
 25
-1e+20
 35
-1e+20
146
0.0
 13
0.0
 23
0.0
 33
0.0
 16
1.0
 26
0.0
 36
0.0
 17
0.0
 27
1.0
 37
0.0
 76
1
330
1B
  0
MATERIAL
  5
1F
102
{ACAD_REACTORS
330
E
102
}
330
E
100
AcDbMaterial
  1
ByBlock
  2

 70
0
 40
1.0
 71
1
 41
1.0
 91
-1023410177
 42
1.0
 72
1
  3

 73
1
 74
1
 75
1
 44
0.5
 73
0
 45
1.0
 46
1.0
 77
1
  4

 78
1
 79
1
170
1
 48
1.0
171
1
  6

172
1
173
1
174
1
140
1.0
141
1.0
175
1
  7

176
1
177
1
178
1
143
1.0
179
1
  8

270
1
271
1
272
1
145
1.0
146
1.0
273
1
  9

274
1
275
1
276
1
 42
1.0
 72
1
  3

 73
1
 74
1
 75
1
 94
63
  0
MATERIAL
  5
20
102
{ACAD_REACTORS
330
E
102
}
330
E
100
AcDbMaterial
  1
ByLayer
  2

 70
0
 40
1.0
 71
1
 41
1.0
 91
-1023410177
 42
1.0
 72
1
  3

 73
1
 74
1
 75
1
 44
0.5
 73
0
 45
1.0
 46
1.0
 77
1
  4

 78
1
 79
1
170
1
 48
1.0
171
1
  6

172
1
173
1
174
1
140
1.0
141
1.0
175
1
  7

176
1
177
1
178
1
143
1.0
179
1
  8

270
1
271
1
272
1
145
1.0
146
1.0
273
1
  9

274
1
275
1
276
1
 42
1.0
 72
1
  3

 73
1
 74
1
 75
1
 94
63
  0
MATERIAL
  5
21
102
{ACAD_REACTORS
330
E
102
}
330
E
100
AcDbMaterial
  1
Global
  2

 70
0
 40
1.0
 71
1
 41
1.0
 91
-1023410177
 42
1.0
 72
1
  3

 73
1
 74
1
 75
1
 44
0.5
 73
0
 45
1.0
 46
1.0
 77
1
  4

 78
1
 79
1
170
1
 48
1.0
171
1
  6

172
1
173
1
174
1
140
1.0
141
1.0
175
1
  7

176
1
177
1
178
1
143
1.0
179
1
  8

270
1
271
1
272
1
145
1.0
146
1.0
273
1
  9

274
1
275
1
276
1
 42
1.0
 72
1
  3

 73
1
 74
1
 75
1
 94
63
  0
MLINESTYLE
  5
22
102
{ACAD_REACTORS
330
10
102
}
330
10
100
AcDbMlineStyle
  2
Standard
 70
0
  3

 62
256
 51
90.0
 52
90.0
 71
2
 49
0.5
 62
256
  6
BYLAYER
 49
-0.5
 62
256
  6
BYLAYER
  0
MLEADERSTYLE
  5
2C
102
{ACAD_REACTORS
330
F
102
}
330
F
100
AcDbMLeaderStyle
179
2
170
2
171
1
172
0
 90
2
 40
0.0
 41
0.0
173
1
 91
-1056964608
 92
-2
290
1
 42
2.0
291
1
 43
8.0
  3
Standard
 44
4.0
300

342
29
174
1
175
1
176
0
178
1
 93
-1056964608
 45
4.0
292
0
297
0
 46
4.0
 94
-1056964608
 47
1.0
 49
1.0
140
1.0
294
1
141
0.0
177
0
142
1.0
295
0
296
0
143
3.75
271
0
272
9
273
9
  0
DICTIONARY
  5
2D
330
A
100
AcDbDictionary
280
1
281
1
  3
CREATED_BY_EZDXF
350
2E
  3
WRITTEN_BY_EZDXF
350
3B
  0
DICTIONARYVAR
  5
2E
330
2D
100
DictionaryVariables
280
0
  1
1.4.3 @ 2026-03-30T19:05:17.342820+00:00
  0
DICTIONARYVAR
  5
3B
330
2D
100
DictionaryVariables
280
0
  1
1.4.3 @ 2026-03-30T19:05:17.346912+00:00
  0
ENDSEC
  0
EOF
